<svg width="271" height="187" viewBox="0 0 271 187" fill="none" xmlns="http://www.w3.org/2000/svg">
<g clip-path="url(#clip0_505_2066)">
<path d="M171.408 52.779H137.793V45.4726C137.793 45.0091 137.61 44.5646 137.284 44.2369C136.958 43.9091 136.515 43.725 136.054 43.725H126.183V35.9422C126.183 35.6504 126.068 35.3706 125.862 35.1643C125.657 34.958 125.379 34.842 125.088 34.842H112.373C112.083 34.842 111.804 34.958 111.599 35.1643C111.394 35.3706 111.278 35.6504 111.278 35.9422V43.7276H99.6736C99.2124 43.7276 98.77 43.9118 98.4439 44.2395C98.1178 44.5673 97.9346 45.0118 97.9346 45.4753V52.7817H65.8807C65.7874 52.7824 65.6982 52.8201 65.6324 52.8867C65.5667 52.9532 65.5298 53.0432 65.5298 53.137V150.128C65.5298 150.222 65.5667 150.312 65.6324 150.379C65.6982 150.445 65.7874 150.483 65.8807 150.484H87.1836C87.2774 150.484 87.3673 150.446 87.4336 150.38C87.4999 150.313 87.5372 150.223 87.5372 150.128V137.079C87.5378 136.985 87.5753 136.895 87.6415 136.828C87.7076 136.762 87.7972 136.724 87.8907 136.724H96.8896C96.9831 136.724 97.0727 136.762 97.1388 136.828C97.205 136.895 97.2425 136.985 97.2431 137.079V150.128C97.2431 150.222 97.28 150.312 97.3458 150.379C97.4115 150.445 97.5008 150.483 97.5941 150.484H139.689C139.783 150.483 139.872 150.445 139.938 150.379C140.005 150.312 140.042 150.222 140.043 150.128V137.079C140.043 136.985 140.08 136.895 140.145 136.829C140.211 136.762 140.3 136.724 140.394 136.724H149.392C149.486 136.724 149.576 136.761 149.642 136.828C149.709 136.894 149.746 136.985 149.746 137.079V150.128C149.747 150.222 149.784 150.312 149.85 150.379C149.917 150.445 150.006 150.483 150.1 150.484H171.402C171.496 150.483 171.586 150.445 171.652 150.379C171.718 150.312 171.755 150.222 171.756 150.128V53.1344C171.755 53.0412 171.719 52.952 171.654 52.8857C171.589 52.8193 171.5 52.7811 171.408 52.779ZM83.7239 132.191C83.7239 132.285 83.6869 132.375 83.6211 132.441C83.5553 132.507 83.466 132.544 83.373 132.544H70.2152C70.1689 132.544 70.1229 132.536 70.0801 132.518C70.0372 132.5 69.9982 132.475 69.9653 132.442C69.9324 132.409 69.9064 132.37 69.8886 132.327C69.8708 132.284 69.8616 132.238 69.8616 132.191V127.688C69.8616 127.641 69.8707 127.595 69.8885 127.552C69.9063 127.509 69.9323 127.47 69.9651 127.437C69.998 127.404 70.037 127.378 70.0799 127.36C70.1228 127.342 70.1687 127.333 70.2152 127.333H83.3808C83.4741 127.333 83.5634 127.371 83.6291 127.438C83.6949 127.504 83.7318 127.594 83.7318 127.688L83.7239 132.191ZM83.7239 120.521C83.7243 120.568 83.7154 120.614 83.698 120.657C83.6805 120.7 83.6547 120.739 83.6221 120.772C83.5894 120.805 83.5506 120.831 83.5079 120.849C83.4651 120.867 83.4193 120.876 83.373 120.876H70.2152C70.1686 120.877 70.1225 120.868 70.0794 120.85C70.0364 120.832 69.9973 120.806 69.9644 120.773C69.9315 120.74 69.9054 120.701 69.8878 120.658C69.8702 120.614 69.8612 120.568 69.8616 120.521V116.007C69.8612 115.961 69.8702 115.914 69.8878 115.871C69.9054 115.828 69.9315 115.788 69.9644 115.755C69.9973 115.722 70.0364 115.696 70.0794 115.678C70.1225 115.661 70.1686 115.652 70.2152 115.652H83.3808C83.4271 115.652 83.473 115.661 83.5157 115.679C83.5585 115.697 83.5973 115.723 83.6299 115.756C83.6625 115.789 83.6883 115.828 83.7058 115.872C83.7233 115.915 83.7321 115.961 83.7318 116.007L83.7239 120.521ZM83.7239 108.854C83.7239 108.947 83.687 109.037 83.6213 109.104C83.5555 109.17 83.4663 109.208 83.373 109.209H70.2152C70.1687 109.209 70.1228 109.2 70.0799 109.182C70.037 109.164 69.998 109.138 69.9651 109.105C69.9323 109.072 69.9063 109.033 69.8885 108.99C69.8707 108.946 69.8616 108.9 69.8616 108.854V104.337C69.8616 104.29 69.8707 104.244 69.8885 104.201C69.9063 104.158 69.9323 104.119 69.9651 104.086C69.998 104.053 70.037 104.027 70.0799 104.009C70.1228 103.991 70.1687 103.982 70.2152 103.982H83.3808C83.4741 103.982 83.5634 104.02 83.6291 104.087C83.6949 104.153 83.7318 104.243 83.7318 104.337L83.7239 108.854ZM83.7239 97.1833C83.7243 97.2299 83.7154 97.276 83.698 97.3191C83.6805 97.3622 83.6547 97.4014 83.6221 97.4344C83.5894 97.4674 83.5506 97.4936 83.5079 97.5115C83.4651 97.5294 83.4193 97.5386 83.373 97.5386H70.2152C70.1686 97.539 70.1225 97.53 70.0794 97.5123C70.0364 97.4946 69.9973 97.4684 69.9644 97.4353C69.9315 97.4023 69.9054 97.363 69.8878 97.3197C69.8702 97.2764 69.8612 97.2301 69.8616 97.1833V92.6826C69.8612 92.6359 69.8702 92.5895 69.8878 92.5462C69.9054 92.503 69.9315 92.4636 69.9644 92.4306C69.9973 92.3975 70.0364 92.3714 70.0794 92.3536C70.1225 92.3359 70.1686 92.3269 70.2152 92.3273H83.3808C83.4271 92.3273 83.473 92.3365 83.5157 92.3544C83.5585 92.3723 83.5973 92.3985 83.6299 92.4315C83.6625 92.4646 83.6883 92.5037 83.7058 92.5468C83.7233 92.5899 83.7321 92.6361 83.7318 92.6826L83.7239 97.1833ZM83.7239 85.5157C83.7239 85.6095 83.687 85.6995 83.6213 85.766C83.5555 85.8326 83.4663 85.8703 83.373 85.871H70.2152C70.1687 85.871 70.1228 85.8618 70.0799 85.844C70.037 85.8261 69.998 85.8 69.9651 85.767C69.9323 85.734 69.9063 85.6948 69.8885 85.6517C69.8707 85.6086 69.8616 85.5624 69.8616 85.5157V80.9992C69.8616 80.9527 69.8708 80.9066 69.8886 80.8636C69.9064 80.8207 69.9324 80.7817 69.9653 80.7489C69.9982 80.7161 70.0372 80.6902 70.0801 80.6726C70.1229 80.655 70.1689 80.6462 70.2152 80.6465H83.3808C83.4739 80.6465 83.5632 80.6837 83.629 80.7498C83.6948 80.816 83.7318 80.9057 83.7318 80.9992L83.7239 85.5157ZM83.7239 73.8481C83.7239 73.9416 83.6869 74.0313 83.6211 74.0975C83.5553 74.1636 83.466 74.2008 83.373 74.2008H70.2152C70.1689 74.2011 70.1229 74.1923 70.0801 74.1747C70.0372 74.1571 69.9982 74.1312 69.9653 74.0984C69.9324 74.0656 69.9064 74.0266 69.8886 73.9837C69.8708 73.9407 69.8616 73.8946 69.8616 73.8481V69.3316C69.8616 69.285 69.8707 69.2387 69.8885 69.1956C69.9063 69.1525 69.9323 69.1134 69.9651 69.0804C69.998 69.0474 70.037 69.0212 70.0799 69.0033C70.1228 68.9855 70.1687 68.9763 70.2152 68.9763H83.3808C83.4741 68.977 83.5634 69.0147 83.6291 69.0813C83.6949 69.1479 83.7318 69.2378 83.7318 69.3316L83.7239 73.8481ZM83.7239 62.1779C83.7243 62.2244 83.7154 62.2706 83.698 62.3136C83.6805 62.3567 83.6547 62.3959 83.6221 62.429C83.5894 62.462 83.5506 62.4882 83.5079 62.5061C83.4651 62.524 83.4193 62.5332 83.373 62.5332H70.2152C70.1686 62.5335 70.1225 62.5246 70.0794 62.5069C70.0364 62.4891 69.9973 62.463 69.9644 62.4299C69.9315 62.3968 69.9054 62.3575 69.8878 62.3143C69.8702 62.271 69.8612 62.2246 69.8616 62.1779V57.6772C69.8612 57.6304 69.8702 57.5841 69.8878 57.5408C69.9054 57.4975 69.9315 57.4582 69.9644 57.4251C69.9973 57.3921 70.0364 57.3659 70.0794 57.3482C70.1225 57.3305 70.1686 57.3215 70.2152 57.3218H83.3808C83.4271 57.3218 83.473 57.3311 83.5157 57.3489C83.5585 57.3668 83.5973 57.3931 83.6299 57.4261C83.6625 57.4591 83.6883 57.4983 83.7058 57.5414C83.7233 57.5845 83.7321 57.6306 83.7318 57.6772L83.7239 62.1779ZM114.919 132.189C114.919 132.235 114.91 132.281 114.892 132.324C114.874 132.367 114.848 132.406 114.815 132.439C114.782 132.472 114.743 132.498 114.7 132.515C114.657 132.533 114.611 132.542 114.565 132.541H101.407C101.314 132.541 101.224 132.504 101.158 132.438C101.092 132.372 101.054 132.283 101.054 132.189V127.688C101.054 127.594 101.092 127.504 101.158 127.438C101.224 127.371 101.314 127.333 101.407 127.333H114.565C114.612 127.333 114.658 127.342 114.7 127.36C114.743 127.378 114.782 127.404 114.815 127.437C114.848 127.47 114.874 127.509 114.892 127.552C114.91 127.595 114.919 127.641 114.919 127.688V132.189ZM114.919 120.519C114.919 120.565 114.91 120.612 114.893 120.655C114.875 120.698 114.849 120.737 114.816 120.771C114.783 120.804 114.744 120.83 114.701 120.848C114.658 120.865 114.612 120.874 114.565 120.874H101.407C101.314 120.874 101.224 120.836 101.157 120.77C101.091 120.703 101.054 120.613 101.054 120.519V116.007C101.054 115.913 101.091 115.823 101.157 115.756C101.224 115.689 101.314 115.652 101.407 115.652H114.565C114.612 115.652 114.658 115.661 114.701 115.678C114.744 115.696 114.783 115.722 114.816 115.755C114.849 115.788 114.875 115.828 114.893 115.871C114.91 115.914 114.919 115.961 114.919 116.007V120.519ZM114.919 108.851C114.919 108.898 114.91 108.944 114.892 108.987C114.874 109.03 114.848 109.069 114.815 109.102C114.782 109.135 114.743 109.161 114.7 109.179C114.658 109.197 114.612 109.206 114.565 109.206H101.407C101.314 109.206 101.224 109.168 101.158 109.101C101.092 109.035 101.054 108.945 101.054 108.851V104.337C101.054 104.243 101.092 104.153 101.158 104.087C101.224 104.02 101.314 103.982 101.407 103.982H114.565C114.612 103.982 114.658 103.991 114.7 104.009C114.743 104.027 114.782 104.053 114.815 104.086C114.848 104.119 114.874 104.158 114.892 104.201C114.91 104.244 114.919 104.29 114.919 104.337V108.851ZM114.919 97.1807C114.919 97.2274 114.91 97.2738 114.893 97.3171C114.875 97.3603 114.849 97.3996 114.816 97.4327C114.783 97.4658 114.744 97.4919 114.701 97.5097C114.658 97.5274 114.612 97.5364 114.565 97.536H101.407C101.314 97.536 101.224 97.4986 101.157 97.4319C101.091 97.3653 101.054 97.2749 101.054 97.1807V92.6826C101.054 92.5884 101.091 92.498 101.157 92.4314C101.224 92.3647 101.314 92.3273 101.407 92.3273H114.565C114.612 92.3269 114.658 92.3359 114.701 92.3536C114.744 92.3714 114.783 92.3975 114.816 92.4306C114.849 92.4636 114.875 92.503 114.893 92.5462C114.91 92.5895 114.919 92.6359 114.919 92.6826V97.1807ZM114.919 85.5131C114.919 85.5597 114.91 85.6059 114.892 85.649C114.874 85.6922 114.848 85.7313 114.815 85.7643C114.782 85.7973 114.743 85.8235 114.7 85.8413C114.658 85.8592 114.612 85.8684 114.565 85.8684H101.407C101.314 85.8677 101.224 85.8301 101.158 85.7636C101.092 85.6971 101.054 85.6071 101.054 85.5131V80.9992C101.054 80.9054 101.092 80.8157 101.158 80.7497C101.224 80.6836 101.314 80.6465 101.407 80.6465H114.565C114.611 80.6462 114.657 80.655 114.7 80.6726C114.743 80.6902 114.782 80.7161 114.815 80.7489C114.848 80.7817 114.874 80.8207 114.892 80.8636C114.91 80.9066 114.919 80.9527 114.919 80.9992V85.5131ZM114.919 73.8455C114.919 73.892 114.91 73.9381 114.892 73.9811C114.874 74.024 114.848 74.063 114.815 74.0958C114.782 74.1286 114.743 74.1545 114.7 74.1721C114.657 74.1896 114.611 74.1985 114.565 74.1982H101.407C101.314 74.1982 101.224 74.1611 101.158 74.095C101.092 74.029 101.054 73.9393 101.054 73.8455V69.3316C101.054 69.2376 101.092 69.1476 101.158 69.0811C101.224 69.0146 101.314 68.977 101.407 68.9763H114.565C114.612 68.9763 114.658 68.9855 114.7 69.0033C114.743 69.0212 114.782 69.0474 114.815 69.0804C114.848 69.1134 114.874 69.1525 114.892 69.1956C114.91 69.2387 114.919 69.285 114.919 69.3316V73.8455ZM114.919 62.1752C114.919 62.222 114.91 62.2684 114.893 62.3116C114.875 62.3549 114.849 62.3942 114.816 62.4273C114.783 62.4603 114.744 62.4865 114.701 62.5042C114.658 62.522 114.612 62.5309 114.565 62.5306H101.407C101.314 62.5306 101.224 62.4931 101.157 62.4265C101.091 62.3598 101.054 62.2695 101.054 62.1752V57.6772C101.054 57.5829 101.091 57.4926 101.157 57.4259C101.224 57.3593 101.314 57.3218 101.407 57.3218H114.565C114.612 57.3215 114.658 57.3305 114.701 57.3482C114.744 57.3659 114.783 57.3921 114.816 57.4251C114.849 57.4582 114.875 57.4975 114.893 57.5408C114.91 57.5841 114.919 57.6304 114.919 57.6772V62.1752ZM136.235 132.186C136.235 132.233 136.226 132.279 136.208 132.322C136.19 132.365 136.164 132.404 136.131 132.436C136.098 132.469 136.059 132.495 136.016 132.513C135.973 132.53 135.927 132.539 135.881 132.539H122.723C122.63 132.539 122.54 132.502 122.474 132.436C122.408 132.37 122.37 132.28 122.37 132.186V127.688C122.37 127.594 122.408 127.504 122.474 127.438C122.54 127.371 122.63 127.333 122.723 127.333H135.881C135.975 127.333 136.065 127.37 136.131 127.437C136.197 127.503 136.235 127.594 136.235 127.688V132.186ZM136.235 120.516C136.235 120.563 136.226 120.609 136.208 120.652C136.191 120.696 136.165 120.735 136.132 120.768C136.099 120.801 136.06 120.827 136.017 120.845C135.974 120.863 135.928 120.872 135.881 120.871H122.723C122.63 120.871 122.54 120.834 122.473 120.767C122.407 120.701 122.37 120.61 122.37 120.516V116.007C122.37 115.913 122.407 115.823 122.473 115.756C122.54 115.689 122.63 115.652 122.723 115.652H135.881C135.928 115.652 135.974 115.661 136.017 115.678C136.06 115.696 136.099 115.722 136.132 115.755C136.165 115.788 136.191 115.828 136.208 115.871C136.226 115.914 136.235 115.961 136.235 116.007V120.516ZM136.235 108.848C136.235 108.943 136.197 109.033 136.131 109.1C136.065 109.166 135.975 109.204 135.881 109.204H122.723C122.63 109.203 122.54 109.165 122.474 109.099C122.408 109.032 122.37 108.942 122.37 108.848V104.337C122.37 104.243 122.408 104.153 122.474 104.087C122.54 104.02 122.63 103.982 122.723 103.982H135.881C135.975 103.982 136.065 104.019 136.131 104.086C136.197 104.152 136.235 104.243 136.235 104.337V108.848ZM136.235 97.178C136.235 97.2248 136.226 97.2712 136.208 97.3144C136.191 97.3577 136.165 97.397 136.132 97.4301C136.099 97.4631 136.06 97.4893 136.017 97.507C135.974 97.5248 135.928 97.5337 135.881 97.5334H122.723C122.63 97.5334 122.54 97.4959 122.473 97.4293C122.407 97.3627 122.37 97.2723 122.37 97.178V92.6826C122.37 92.5884 122.407 92.498 122.473 92.4314C122.54 92.3647 122.63 92.3273 122.723 92.3273H135.881C135.928 92.3269 135.974 92.3359 136.017 92.3536C136.06 92.3714 136.099 92.3975 136.132 92.4306C136.165 92.4636 136.191 92.503 136.208 92.5462C136.226 92.5895 136.235 92.6359 136.235 92.6826V97.178ZM136.235 85.5104C136.235 85.6047 136.197 85.6951 136.131 85.7617C136.065 85.8283 135.975 85.8658 135.881 85.8658H122.723C122.63 85.8651 122.54 85.8274 122.474 85.7609C122.408 85.6944 122.37 85.6045 122.37 85.5104V80.9992C122.37 80.9054 122.408 80.8157 122.474 80.7497C122.54 80.6836 122.63 80.6465 122.723 80.6465H135.881C135.927 80.6462 135.973 80.655 136.016 80.6726C136.059 80.6902 136.098 80.7161 136.131 80.7489C136.164 80.7817 136.19 80.8207 136.208 80.8636C136.226 80.9066 136.235 80.9527 136.235 80.9992V85.5104ZM136.235 73.8428C136.235 73.8894 136.226 73.9355 136.208 73.9784C136.19 74.0214 136.164 74.0604 136.131 74.0932C136.098 74.1259 136.059 74.1519 136.016 74.1694C135.973 74.187 135.927 74.1959 135.881 74.1955H122.723C122.63 74.1955 122.54 74.1585 122.474 74.0924C122.408 74.0263 122.37 73.9366 122.37 73.8428V69.3316C122.37 69.2376 122.408 69.1476 122.474 69.0811C122.54 69.0146 122.63 68.977 122.723 68.9763H135.881C135.975 68.9763 136.065 69.0137 136.131 69.0804C136.197 69.147 136.235 69.2374 136.235 69.3316V73.8428ZM136.235 62.1726C136.235 62.2194 136.226 62.2657 136.208 62.309C136.191 62.3523 136.165 62.3916 136.132 62.4246C136.099 62.4577 136.06 62.4839 136.017 62.5016C135.974 62.5193 135.928 62.5283 135.881 62.5279H122.723C122.63 62.5279 122.54 62.4905 122.473 62.4239C122.407 62.3572 122.37 62.2668 122.37 62.1726V57.6772C122.37 57.5829 122.407 57.4926 122.473 57.4259C122.54 57.3593 122.63 57.3218 122.723 57.3218H135.881C135.928 57.3215 135.974 57.3305 136.017 57.3482C136.06 57.3659 136.099 57.3921 136.132 57.4251C136.165 57.4582 136.191 57.4975 136.208 57.5408C136.226 57.5841 136.235 57.6304 136.235 57.6772V62.1726ZM167.429 132.184C167.429 132.277 167.391 132.367 167.325 132.433C167.259 132.499 167.169 132.536 167.076 132.536H153.918C153.872 132.537 153.826 132.528 153.783 132.51C153.74 132.493 153.701 132.467 153.668 132.434C153.635 132.401 153.609 132.362 153.592 132.319C153.574 132.276 153.565 132.23 153.565 132.184V127.688C153.565 127.594 153.602 127.503 153.668 127.437C153.734 127.37 153.824 127.333 153.918 127.333H167.076C167.169 127.333 167.259 127.371 167.325 127.438C167.391 127.504 167.429 127.594 167.429 127.688V132.184ZM167.429 120.513C167.429 120.607 167.392 120.698 167.326 120.765C167.26 120.831 167.17 120.869 167.076 120.869H153.918C153.872 120.869 153.825 120.86 153.782 120.842C153.739 120.825 153.7 120.798 153.667 120.765C153.634 120.732 153.608 120.693 153.591 120.65C153.573 120.606 153.564 120.56 153.565 120.513V116.007C153.564 115.961 153.573 115.914 153.591 115.871C153.608 115.828 153.634 115.788 153.667 115.755C153.7 115.722 153.739 115.696 153.782 115.678C153.825 115.661 153.872 115.652 153.918 115.652H167.076C167.17 115.652 167.26 115.689 167.326 115.756C167.392 115.823 167.429 115.913 167.429 116.007V120.513ZM167.429 108.846C167.429 108.94 167.391 109.03 167.325 109.096C167.259 109.163 167.169 109.2 167.076 109.201H153.918C153.824 109.201 153.734 109.164 153.668 109.097C153.602 109.03 153.565 108.94 153.565 108.846V104.337C153.565 104.243 153.602 104.152 153.668 104.086C153.734 104.019 153.824 103.982 153.918 103.982H167.076C167.169 103.982 167.259 104.02 167.325 104.087C167.391 104.153 167.429 104.243 167.429 104.337V108.846ZM167.429 97.1754C167.429 97.2697 167.392 97.36 167.326 97.4267C167.26 97.4933 167.17 97.5307 167.076 97.5307H153.918C153.826 97.5301 153.739 97.4933 153.673 97.4284C153.608 97.3634 153.571 97.2755 153.57 97.1833V92.6826C153.569 92.6359 153.578 92.5895 153.596 92.5462C153.614 92.503 153.64 92.4636 153.673 92.4306C153.705 92.3975 153.745 92.3714 153.788 92.3536C153.831 92.3359 153.877 92.3269 153.923 92.3273H167.081C167.175 92.3273 167.265 92.3647 167.331 92.4314C167.397 92.498 167.435 92.5884 167.435 92.6826L167.429 97.1754ZM167.429 85.5078C167.429 85.6018 167.391 85.6918 167.325 85.7583C167.259 85.8248 167.169 85.8624 167.076 85.8631H153.918C153.824 85.8631 153.734 85.8257 153.668 85.7591C153.602 85.6924 153.565 85.602 153.565 85.5078V80.9992C153.565 80.9527 153.574 80.9066 153.592 80.8636C153.609 80.8207 153.635 80.7817 153.668 80.7489C153.701 80.7161 153.74 80.6902 153.783 80.6726C153.826 80.655 153.872 80.6462 153.918 80.6465H167.076C167.169 80.6465 167.259 80.6836 167.325 80.7497C167.391 80.8157 167.429 80.9054 167.429 80.9992V85.5078ZM167.429 73.8402C167.429 73.934 167.391 74.0237 167.325 74.0898C167.259 74.1558 167.169 74.1929 167.076 74.1929H153.918C153.872 74.1932 153.826 74.1844 153.783 74.1668C153.74 74.1492 153.701 74.1233 153.668 74.0905C153.635 74.0577 153.609 74.0187 153.592 73.9758C153.574 73.9328 153.565 73.8867 153.565 73.8402V69.3316C153.565 69.2374 153.602 69.147 153.668 69.0804C153.734 69.0137 153.824 68.9763 153.918 68.9763H167.076C167.169 68.977 167.259 69.0146 167.325 69.0811C167.391 69.1476 167.429 69.2376 167.429 69.3316V73.8402ZM167.429 62.17C167.429 62.2166 167.42 62.2628 167.403 62.3059C167.385 62.3491 167.359 62.3882 167.326 62.4212C167.293 62.4542 167.254 62.4804 167.211 62.4982C167.168 62.5161 167.122 62.5253 167.076 62.5253H153.918C153.826 62.5246 153.739 62.4879 153.673 62.4229C153.608 62.358 153.571 62.27 153.57 62.1779V57.6772C153.569 57.6304 153.578 57.5841 153.596 57.5408C153.614 57.4975 153.64 57.4582 153.673 57.4251C153.705 57.3921 153.745 57.3659 153.788 57.3482C153.831 57.3305 153.877 57.3215 153.923 57.3218H167.081C167.175 57.3218 167.265 57.3593 167.331 57.4259C167.397 57.4926 167.435 57.5829 167.435 57.6772L167.429 62.17Z" fill="#F2F2F2"/>
<path d="M69.9663 12.3781L65.9016 14.968L68.3687 10.4568C67.6701 9.89662 66.8057 9.58637 65.9121 9.57505H65.8466C65.5642 9.5793 65.282 9.55816 65.0033 9.51188L63.6257 10.3883L64.215 9.30922C63.238 8.9669 62.3944 8.3218 61.8055 7.46683L59.3411 9.04602L60.8967 6.20084C59.4563 4.4611 57.513 3.39514 55.3733 3.39514C52.8093 3.39514 50.5255 4.92696 49.0511 7.31417C48.615 8.03097 47.9972 8.61834 47.2608 9.0161C46.5245 9.41385 45.6961 9.60767 44.8607 9.57768H44.7245C41.8934 9.57768 39.5991 12.8045 39.5991 16.7814C39.5991 20.7584 41.9038 23.9878 44.735 23.9878C45.3569 23.9846 45.9688 23.8302 46.5185 23.5377C47.4821 23.0666 48.5361 22.8117 49.6074 22.7908C50.6788 22.7699 51.7418 22.9835 52.7229 23.4167C53.5526 23.7897 54.4513 23.9825 55.3602 23.9825C56.2691 23.9825 57.1678 23.7897 57.9975 23.4167C58.9707 22.9925 60.0234 22.7838 61.084 22.8047C62.1446 22.8256 63.1883 23.0756 64.1443 23.5377C64.6893 23.8277 65.2955 23.982 65.9121 23.9878C68.7432 23.9878 71.0375 20.761 71.0375 16.7814C71.0543 15.2465 70.6859 13.7321 69.9663 12.3781Z" fill="#F2F2F2"/>
<path opacity="0.03" d="M62.3058 22.9192C60.827 22.6363 59.2977 22.803 57.9137 23.3983C57.0843 23.7704 56.1861 23.9627 55.2777 23.9627C54.3694 23.9627 53.4712 23.7704 52.6417 23.3983C51.6604 22.9663 50.5975 22.7534 49.5263 22.7743C48.4551 22.7952 47.4012 23.0494 46.4373 23.5193C45.8873 23.8132 45.2741 23.9677 44.6512 23.9694C42.1369 23.9694 40.0444 21.4243 39.6096 18.0658C40.1122 17.6971 40.5391 17.2341 40.8667 16.7025C42.3412 14.3153 44.625 12.7834 47.189 12.7834C49.753 12.7834 52.0079 14.2968 53.4746 16.6604C53.9137 17.3742 54.5293 17.9617 55.2612 18.3657C55.9932 18.7697 56.8168 18.9765 57.6518 18.966H57.7173C59.7287 18.9528 61.4625 20.5662 62.3058 22.9192Z" fill="black"/>
<path d="M201.37 5.21641L199.338 6.50871L200.569 4.25836C200.22 3.97922 199.789 3.82459 199.343 3.81882H199.312C199.171 3.8216 199.029 3.81103 198.89 3.78724L198.204 4.22678L198.497 3.70038C198.011 3.52901 197.591 3.20866 197.295 2.78445L196.067 3.57405L196.853 2.15541C196.528 1.72724 196.113 1.37738 195.636 1.13146C195.16 0.885545 194.635 0.749788 194.1 0.734131C192.822 0.734131 191.683 1.50004 190.957 2.6897C190.739 3.04761 190.43 3.34077 190.062 3.53917C189.694 3.73757 189.279 3.83408 188.862 3.81882H188.794C187.382 3.81882 186.238 5.42697 186.238 7.41148C186.238 9.396 187.382 11.0041 188.794 11.0041C189.104 11.0031 189.41 10.9264 189.684 10.7804C190.165 10.5458 190.69 10.4189 191.224 10.4084C191.758 10.398 192.288 10.5043 192.777 10.7199C193.192 10.9056 193.64 11.0016 194.093 11.0016C194.547 11.0016 194.995 10.9056 195.41 10.7199C195.895 10.5087 196.42 10.4048 196.949 10.4153C197.479 10.4257 197.999 10.5502 198.476 10.7804C198.748 10.9232 199.05 10.9981 199.356 10.9989C200.768 10.9989 201.912 9.39074 201.912 7.40622C201.917 6.64224 201.73 5.8894 201.37 5.21641Z" fill="#F2F2F2"/>
<path opacity="0.03" d="M197.549 10.4724C196.811 10.333 196.048 10.4163 195.357 10.712C194.945 10.8962 194.499 10.9913 194.048 10.9909C193.596 10.9886 193.15 10.8918 192.738 10.7067C192.249 10.491 191.718 10.3847 191.184 10.3952C190.649 10.4056 190.123 10.5326 189.642 10.7672C189.368 10.9135 189.063 10.9903 188.752 10.9909C187.498 10.9909 186.455 9.72233 186.238 8.04575C186.489 7.86192 186.702 7.6314 186.866 7.3667C187.6 6.17704 188.739 5.41113 190.009 5.41113C191.279 5.41113 192.413 6.16651 193.152 7.34564C193.372 7.7034 193.681 7.99752 194.048 8.19916C194.415 8.40079 194.829 8.50303 195.247 8.49582H195.281C196.263 8.49582 197.128 9.30121 197.549 10.4724Z" fill="black"/>
<path d="M170.556 19.5154L168.173 21.034L169.619 18.402C169.21 18.0702 168.703 17.8849 168.178 17.8756H168.139C167.973 17.878 167.808 17.8656 167.644 17.8388L166.837 18.3652L167.183 17.7309C166.611 17.5305 166.116 17.1538 165.769 16.6544L164.323 17.5756L165.237 15.9069C164.853 15.4078 164.363 15.001 163.802 14.716C163.242 14.431 162.625 14.275 161.997 14.2593C160.494 14.2593 159.153 15.1594 158.289 16.5596C158.032 16.9769 157.67 17.3184 157.24 17.5496C156.809 17.7807 156.325 17.8932 155.838 17.8756H155.756C154.096 17.8756 152.752 19.768 152.752 22.0868C152.752 24.4056 154.096 26.3112 155.756 26.3112C156.122 26.3105 156.481 26.2202 156.804 26.048C157.369 25.772 157.987 25.6228 158.615 25.6105C159.243 25.5982 159.867 25.7233 160.442 25.9769C160.929 26.1947 161.455 26.3072 161.988 26.3072C162.521 26.3072 163.048 26.1947 163.535 25.9769C164.106 25.7283 164.723 25.606 165.346 25.6183C165.968 25.6306 166.58 25.7771 167.141 26.048C167.464 26.219 167.824 26.3092 168.189 26.3112C169.849 26.3112 171.195 24.4214 171.195 22.0868C171.2 21.1895 170.98 20.3054 170.556 19.5154Z" fill="#F2F2F2"/>
<path opacity="0.03" d="M157.839 35.0685C156.971 34.9034 156.074 35.0014 155.262 35.3501C154.775 35.5679 154.248 35.6804 153.715 35.6804C153.182 35.6804 152.655 35.5679 152.169 35.3501C151.593 35.0965 150.97 34.9715 150.342 34.9837C149.714 34.996 149.096 35.1453 148.531 35.4212C148.208 35.5931 147.848 35.6834 147.483 35.6844C146.009 35.6844 144.78 34.192 144.526 32.2233C144.82 32.0101 145.07 31.742 145.262 31.4337C146.127 30.0335 147.468 29.136 148.971 29.136C150.474 29.136 151.799 30.023 152.664 31.4074C152.921 31.8263 153.281 32.1711 153.71 32.4082C154.14 32.6453 154.623 32.7666 155.112 32.7602H155.141C156.325 32.7418 157.344 33.6893 157.839 35.0685Z" fill="black"/>
<path d="M248.084 150.547C248.084 151 248.084 151.452 248.055 151.9C247.988 153.641 247.78 155.375 247.432 157.082C245.711 165.533 240.743 172.103 234.502 174.043C233.26 174.431 231.968 174.629 230.668 174.63C221.048 174.63 213.251 163.838 213.251 150.547C213.251 137.255 221.048 126.464 230.668 126.464C239.69 126.464 247.112 135.955 247.995 148.112C248.055 148.912 248.084 149.726 248.084 150.547Z" fill="#333333"/>
<path opacity="0.1" d="M248.055 151.902C247.988 153.644 247.779 155.377 247.432 157.085C245.711 165.536 240.743 172.106 234.502 174.045C229.67 171.811 226.084 163.436 226.084 153.445C226.084 141.743 231.008 132.257 237.084 132.257C242.183 132.257 246.473 138.948 247.717 148.025C247.89 149.27 248.003 150.571 248.055 151.902Z" fill="black"/>
<path d="M160.61 97.2491C160.61 97.2491 207.751 87.5107 232.632 96.4595C232.632 96.4595 236.298 98.3019 232.632 101.46C232.632 101.46 236.099 105.145 230.044 106.461L205.989 107.948L160.61 103.303V97.2491Z" fill="#2F2E30"/>
<path d="M214.823 113.041L211.68 106.724C211.68 106.724 213.058 100.334 201.859 98.4547C201.238 95.6674 198.425 93.5645 195.049 93.5645C191.755 93.5645 189 95.5648 188.287 98.2494C186.679 98.3889 184.966 98.5784 183.133 98.8284L180.572 112.631L180.252 111.988C180.252 111.988 181.878 104.44 167.22 103.337C168.019 102.364 168.459 101.143 168.467 99.8812C168.467 96.536 165.358 93.8277 161.526 93.8277C157.695 93.8277 154.586 96.536 154.586 99.8812C154.596 101.255 155.115 102.577 156.042 103.587C154.672 103.719 153.226 103.887 151.705 104.092L148.824 119.621L162.181 121.464L183.395 118.305L181.517 114.528L193.609 116.197L214.823 113.041Z" fill="#6C6C6C"/>
<path d="M169.771 99.06C169.771 99.06 167.676 87.2476 177.366 86.9844C187.056 86.7212 183.913 104.092 183.913 104.092C183.913 104.092 191.247 105.672 191.77 108.567C192.294 111.462 166.366 112.251 166.366 112.251L169.771 99.06Z" fill="#8F8F8F"/>
<path d="M152.753 161.47C152.753 175.419 142.434 186.737 129.706 186.737C116.977 186.737 106.658 175.419 106.658 161.47C106.658 147.52 117.106 133.965 129.837 133.965C142.567 133.965 152.753 147.515 152.753 161.47Z" fill="#333333"/>
<path opacity="0.1" d="M129.705 183.839C139.83 183.839 148.038 174.295 148.038 162.523C148.038 150.75 139.83 141.206 129.705 141.206C119.58 141.206 111.373 150.75 111.373 162.523C111.373 174.295 119.58 183.839 129.705 183.839Z" fill="black"/>
<path d="M28.3506 184.365C41.0792 184.365 51.3977 173.053 51.3977 159.098C51.3977 145.144 41.0792 133.831 28.3506 133.831C15.622 133.831 5.30347 145.144 5.30347 159.098C5.30347 173.053 15.622 184.365 28.3506 184.365Z" fill="#303030"/>
<path d="M67.6355 98.8284C67.6355 98.8284 56.8976 99.3548 57.4214 105.145C57.9452 110.936 66.5879 106.724 66.5879 106.724L67.6355 98.8284Z" fill="#373737"/>
<path d="M156.974 108.475L161.395 78.8252C161.395 78.8252 162.443 75.1404 148.3 75.1404C148.3 75.1404 102.992 72.2453 91.4683 76.9828C91.4683 76.9828 78.1114 81.9836 59.5166 107.777C59.5166 107.777 155.141 110.054 156.974 108.475Z" fill="#FBA403"/>
<path d="M153.417 78.8472C154.752 78.8363 155.722 80.1107 155.357 81.3944L147.253 109.883L142.162 109.759L118.067 109.17L64.3278 107.854C64.1975 105.621 83.9507 85.5803 88.976 80.5202C89.7152 79.7758 90.7154 79.3591 91.7644 79.3505L153.417 78.8472Z" fill="#4F4F4F"/>
<path opacity="0.2" d="M118.074 109.169L120.269 100.642C120.269 100.642 118.174 88.8268 127.864 88.5636C137.555 88.3004 134.412 105.672 134.412 105.672C134.412 105.672 141.09 107.111 142.153 109.759L118.074 109.169Z" fill="#888888"/>
<path d="M248.215 148.705C246.643 133.439 236.822 130.149 236.822 130.149C227.394 129.623 221.108 165.681 221.108 165.681L148.562 172.261C148.562 172.261 151.05 141.598 133.503 136.597C115.956 131.597 111.373 167.523 110.587 172.524C109.801 177.525 4.77966 171.998 1.89877 169.892C-0.982121 167.786 0.0654748 147.52 0.851172 145.941C1.63687 144.362 3.73206 137.255 3.73206 137.255C3.73206 135.56 4.53871 133.418 5.20917 131.931C5.68059 130.878 6.08915 130.149 6.08915 130.149C8.36506 117.179 20.1819 114.039 20.9755 113.831H21.0174C24.1602 110.672 53.231 108.567 53.231 108.567L64.2307 106.461L153.661 108.227L157.467 108.304L202.932 106.106L233.679 104.619C240.751 104.619 244.417 122.516 244.417 122.516C250.965 138.308 248.215 148.705 248.215 148.705Z" fill="#FBA403"/>
<path opacity="0.1" d="M100.778 133.204C107.686 130.41 111.875 124.622 110.134 120.276C108.394 115.93 101.383 114.671 94.4754 117.465C87.5675 120.258 83.3783 126.046 85.1187 130.392C86.859 134.739 93.8697 135.997 100.778 133.204Z" fill="black"/>
<path d="M100.254 132.15C107.162 129.356 111.351 123.568 109.611 119.222C107.871 114.876 100.86 113.617 93.952 116.411C87.0441 119.204 82.8549 124.992 84.5952 129.338C86.3355 133.685 93.3463 134.943 100.254 132.15Z" fill="#F2F2F2"/>
<path opacity="0.1" d="M21.4992 114.368C21.3657 117.263 20.0745 120.916 17.7515 124.435C14.0142 130.099 8.88879 133.434 5.73291 132.457C6.20433 131.405 6.61289 130.675 6.61289 130.675C8.88879 117.705 20.7057 114.565 21.4992 114.368Z" fill="black"/>
<path d="M20.7136 113.841C20.58 116.736 19.2889 120.39 16.9658 123.909C13.2285 129.573 8.10315 132.907 4.94727 131.931C5.41868 130.878 5.82725 130.149 5.82725 130.149C8.10315 117.179 19.92 114.039 20.7136 113.841Z" fill="#F2F2F2"/>
<path d="M57.4215 121.724H36.7314L35.6838 118.829H60.8261L57.4215 121.724Z" fill="#373737"/>
<path d="M52.7073 143.043H18.6604V153.045H52.7073V143.043Z" fill="#373737"/>
<path opacity="0.1" d="M89.3731 162.783C91.9767 162.783 94.0873 160.662 94.0873 158.045C94.0873 155.429 91.9767 153.308 89.3731 153.308C86.7695 153.308 84.6589 155.429 84.6589 158.045C84.6589 160.662 86.7695 162.783 89.3731 162.783Z" fill="black"/>
<path d="M88.8492 161.993C91.4528 161.993 93.5634 159.872 93.5634 157.256C93.5634 154.639 91.4528 152.518 88.8492 152.518C86.2456 152.518 84.135 154.639 84.135 157.256C84.135 159.872 86.2456 161.993 88.8492 161.993Z" fill="#F2F2F2"/>
<path opacity="0.1" d="M3.73209 159.361C5.03388 159.361 6.08918 157.122 6.08918 154.361C6.08918 151.599 5.03388 149.36 3.73209 149.36C2.43031 149.36 1.375 151.599 1.375 154.361C1.375 157.122 2.43031 159.361 3.73209 159.361Z" fill="black"/>
<path d="M2.94645 159.098C4.24823 159.098 5.30354 156.859 5.30354 154.097C5.30354 151.336 4.24823 149.097 2.94645 149.097C1.64466 149.097 0.589355 151.336 0.589355 154.097C0.589355 156.859 1.64466 159.098 2.94645 159.098Z" fill="#F2F2F2"/>
<path d="M210.632 133.044C207.751 141.993 207.489 155.943 207.489 155.943L206.442 159.627L155.372 165.418C155.372 165.418 155.633 139.624 156.419 127.517C156.972 118.976 154.921 111.746 153.661 108.227L157.467 108.304L202.932 106.106C210.528 111.457 213.217 125.009 210.632 133.044Z" fill="#D58A00"/>
<path d="M198.988 116.91C198.809 116.922 198.635 116.971 198.476 117.055C198.318 117.139 198.178 117.255 198.067 117.396C197.955 117.537 197.874 117.7 197.829 117.874C197.784 118.048 197.776 118.23 197.804 118.408C197.829 118.556 197.89 118.697 197.981 118.817C198.073 118.936 198.192 119.032 198.328 119.095C199.174 119.518 204.805 118.568 206.939 118.189C207.255 118.138 207.546 117.983 207.765 117.748C207.983 117.513 208.119 117.212 208.149 116.892C208.176 116.518 208.039 116.199 207.495 116.199L198.988 116.91Z" fill="#F2F2F2"/>
<path d="M153.538 107.251C153.538 107.251 154.848 113.041 161.133 111.199L163.229 103.04L159.038 100.671L153.538 107.251Z" fill="#373737"/>
<path d="M161.235 95.4936C164.116 93.7775 168.686 92.2773 173.207 95.8805C174.148 96.6271 174.811 97.67 175.091 98.8415C175.371 100.013 175.251 101.245 174.749 102.339C173.27 105.558 169.758 109.051 161.558 104.869C160.753 104.458 160.066 103.848 159.562 103.095L159.52 103.032C159.123 102.429 158.852 101.751 158.724 101.04C158.595 100.328 158.612 99.5983 158.772 98.8936C158.932 98.1888 159.233 97.5242 159.657 96.9398C160.08 96.3553 160.617 95.8634 161.235 95.4936Z" fill="#373737"/>
<path d="M129.836 166.6C132.729 166.6 135.074 164.243 135.074 161.336C135.074 158.428 132.729 156.072 129.836 156.072C126.944 156.072 124.598 158.428 124.598 161.336C124.598 164.243 126.944 166.6 129.836 166.6Z" fill="#F2F2F2"/>
<path d="M238.001 157.124C239.592 157.124 240.882 154.768 240.882 151.86C240.882 148.953 239.592 146.596 238.001 146.596C236.41 146.596 235.12 148.953 235.12 151.86C235.12 154.768 236.41 157.124 238.001 157.124Z" fill="#F2F2F2"/>
<path d="M129.967 145.149H129.444C127.708 145.149 126.301 146.563 126.301 148.307V151.202C126.301 152.947 127.708 154.361 129.444 154.361H129.967C131.703 154.361 133.11 152.947 133.11 151.202V148.307C133.11 146.563 131.703 145.149 129.967 145.149Z" fill="#484848"/>
<path d="M238.001 135.016C238.241 135.016 238.48 135.063 238.702 135.156C238.925 135.248 239.127 135.384 239.297 135.555C239.467 135.726 239.602 135.929 239.694 136.153C239.787 136.376 239.834 136.616 239.834 136.858V141.069C239.834 141.907 239.503 142.71 238.913 143.303C238.324 143.895 237.525 144.228 236.691 144.228C236.205 144.228 235.739 144.033 235.395 143.688C235.051 143.342 234.858 142.874 234.858 142.385V138.174C234.858 137.336 235.189 136.533 235.778 135.941C236.368 135.348 237.167 135.016 238.001 135.016Z" fill="#484848"/>
<path d="M238.001 168.708C237.167 168.708 236.368 168.375 235.778 167.782C235.189 167.19 234.858 166.387 234.858 165.549V162.654C234.858 161.816 235.189 161.013 235.778 160.421C236.368 159.828 237.167 159.496 238.001 159.496C239.729 159.496 239.572 160.917 239.572 162.654V165.549C239.569 167.286 239.734 168.708 238.001 168.708Z" fill="#484848"/>
<path d="M230.144 147.123C230.977 147.123 231.777 147.456 232.366 148.048C232.955 148.64 233.287 149.444 233.287 150.281V154.229C233.287 154.788 233.066 155.323 232.673 155.718C232.28 156.113 231.747 156.335 231.191 156.335C230.358 156.335 229.558 156.002 228.969 155.41C228.38 154.817 228.049 154.014 228.049 153.176V149.228C228.049 148.67 228.269 148.134 228.662 147.74C229.055 147.345 229.588 147.123 230.144 147.123Z" fill="#484848"/>
<path d="M248.084 150.547C248.084 150.999 248.084 151.452 248.055 151.9C247.988 153.641 247.78 155.374 247.432 157.082C247.259 157.111 247.083 157.126 246.908 157.127C246.074 157.127 245.275 156.794 244.686 156.202C244.096 155.609 243.765 154.806 243.765 153.968V151.073C243.765 150.236 244.096 149.432 244.686 148.84C245.275 148.248 246.074 147.915 246.908 147.915C247.182 147.914 247.455 147.95 247.72 148.023C247.814 148.049 247.908 148.078 247.997 148.112C248.055 148.912 248.084 149.726 248.084 150.547Z" fill="#484848"/>
<path d="M143.193 156.335H142.669C140.934 156.335 139.527 157.749 139.527 159.493V162.388C139.527 164.133 140.934 165.547 142.669 165.547H143.193C144.929 165.547 146.336 164.133 146.336 162.388V159.493C146.336 157.749 144.929 156.335 143.193 156.335Z" fill="#484848"/>
<path d="M117.527 156.335H117.003C115.268 156.335 113.861 157.749 113.861 159.493V162.388C113.861 164.133 115.268 165.547 117.003 165.547H117.527C119.263 165.547 120.67 164.133 120.67 162.388V159.493C120.67 157.749 119.263 156.335 117.527 156.335Z" fill="#484848"/>
<path d="M130.098 170.021H129.574C127.839 170.021 126.432 171.435 126.432 173.179V176.075C126.432 177.819 127.839 179.233 129.574 179.233H130.098C131.834 179.233 133.241 177.819 133.241 176.075V173.179C133.241 171.435 131.834 170.021 130.098 170.021Z" fill="#484848"/>
<path d="M221.307 54.9557C221.306 55.4577 221.217 55.9556 221.045 56.427C220.747 57.2647 220.201 57.9908 219.48 58.5081C218.76 59.0255 217.899 59.3095 217.014 59.3221C216.129 59.3347 215.261 59.0753 214.526 58.5786C213.791 58.0819 213.225 57.3717 212.903 56.5428C212.705 56.0399 212.604 55.5042 212.604 54.9636C212.604 53.8048 213.062 52.6935 213.878 51.8742C214.693 51.0548 215.799 50.5945 216.952 50.5945C218.105 50.5945 219.211 51.0548 220.026 51.8742C220.841 52.6935 221.299 53.8048 221.299 54.9636L221.307 54.9557Z" fill="#252525"/>
<path d="M213.487 56.0454C213.21 55.5437 213.034 54.992 212.969 54.422C212.904 53.8519 212.952 53.2746 213.109 52.723C213.266 52.1714 213.529 51.6563 213.885 51.2071C214.24 50.7579 214.68 50.3834 215.179 50.105C215.664 49.8289 216.197 49.6501 216.75 49.5786C216.151 49.5572 215.554 49.6605 214.997 49.8821C214.44 50.1037 213.934 50.4387 213.511 50.8661C213.089 51.2935 212.759 51.804 212.542 52.3656C212.326 52.9273 212.227 53.5279 212.252 54.1297C212.278 54.7315 212.427 55.3216 212.69 55.8628C212.953 56.404 213.325 56.8848 213.781 57.2747C214.238 57.6647 214.77 57.9556 215.344 58.129C215.918 58.3024 216.522 58.3547 217.117 58.2825C216.372 58.2541 215.646 58.0333 215.011 57.6415C214.375 57.2497 213.85 56.7 213.487 56.0454Z" fill="#252525"/>
<path d="M223.172 61.0409H211.525V79.299H223.172V61.0409Z" fill="#151515"/>
<path d="M193.116 127.283C193.116 127.283 191.875 130.704 188.926 131.183C185.977 131.662 184.275 132.426 184.275 132.426L191.262 136.95L194.989 136.481C194.989 136.481 195.453 131.644 197.006 130.552C198.559 129.459 193.116 127.283 193.116 127.283Z" fill="#FBBEBE"/>
<path d="M243.59 127.283C243.59 127.283 244.831 130.704 247.78 131.183C250.729 131.662 252.437 132.434 252.437 132.434L245.449 136.958L241.722 136.489C241.722 136.489 241.259 131.652 239.706 130.56C238.153 129.467 243.59 127.283 243.59 127.283Z" fill="#FBBEBE"/>
<path d="M209.585 97.0096C209.585 97.0096 207.72 97.9466 207.099 99.818C207.099 99.818 203.695 100.91 201.819 103.877C201.819 103.877 199.491 106.372 199.18 107.622C198.868 108.872 195.298 116.371 195.298 116.371C195.298 116.371 191.728 128.072 189.864 129.323C189.864 129.323 195.764 128.072 196.851 134.002C196.851 134.002 198.25 134.002 199.803 128.541C201.356 123.08 205.08 116.371 205.08 116.371C205.08 116.371 206.324 111.688 207.411 110.909C208.498 110.13 210.205 106.54 211.759 107.474C213.312 108.409 223.56 107.319 223.56 107.319C223.56 107.319 229.615 110.127 229.769 112.001C229.924 113.875 231.013 114.028 231.168 115.589C231.322 117.15 237.068 129.478 237.068 129.478C237.068 129.478 238.155 132.899 238.464 133.689C238.464 133.689 241.882 125.419 246.384 130.099C246.384 130.099 246.23 126.977 244.831 125.098C243.433 123.219 237.377 108.556 237.377 108.556C237.377 108.556 236.757 106.372 236.136 105.748C235.515 105.124 230.702 100.131 228.997 100.131C228.997 100.131 228.064 97.7887 226.977 97.4781L209.585 97.0096Z" fill="#696880"/>
<path d="M195.61 135.397C194.397 135.887 193.078 136.052 191.782 135.876C190.486 135.701 189.258 135.191 188.216 134.397C187.205 133.617 186.096 132.972 184.919 132.478C183.274 131.81 181.302 131.312 180.703 132.434C179.616 134.46 193.902 139.456 193.902 139.456C193.902 139.456 195.764 138.361 195.61 135.397Z" fill="#696880"/>
<path d="M241.104 135.397C242.318 135.887 243.636 136.052 244.932 135.876C246.228 135.701 247.456 135.191 248.498 134.397C249.51 133.617 250.618 132.972 251.795 132.478C253.44 131.81 255.412 131.312 256.012 132.434C257.099 134.46 242.812 139.456 242.812 139.456C242.812 139.456 240.95 138.361 241.104 135.397Z" fill="#696880"/>
<path d="M214.66 71.3425C214.6 71.8847 214.425 72.4716 213.964 72.7611C213.586 72.998 213.11 72.9769 212.675 73.069C212.218 73.1829 211.794 73.4033 211.438 73.7124C211.082 74.0215 210.803 74.4107 210.624 74.8483C210.277 75.7317 210.209 76.7015 210.431 77.625C210.532 78.0783 210.664 78.5242 210.826 78.9594C211.284 80.2544 211.834 81.5362 212.683 82.6153C213.409 83.4701 214.226 84.2432 215.119 84.9209C215.671 85.3736 216.242 85.8368 216.923 86.05C217.385 86.1729 217.862 86.2357 218.34 86.2369C218.929 86.2658 219.555 86.2843 220.066 85.9895C220.852 85.5341 221.087 84.5261 221.512 83.7207C221.876 83.0338 222.415 82.4547 222.753 81.7546C222.992 81.2055 223.168 80.6306 223.277 80.0412L224.002 76.8012C224.264 75.6273 224.505 74.3008 223.845 73.2928C223.799 73.2096 223.732 73.1397 223.651 73.0901C223.526 73.039 223.389 73.0244 223.256 73.048C222.421 73.1044 221.587 72.9131 220.859 72.4979C220.744 72.4403 220.642 72.3597 220.558 72.261C220.451 72.0943 220.387 71.9035 220.372 71.7057C220.301 71.3037 220.189 70.9103 220.037 70.5318C219.994 70.3967 219.915 70.2757 219.809 70.1818C219.699 70.1115 219.573 70.0691 219.443 70.0581C218.321 69.8744 217.191 69.7549 216.056 69.7001C215.682 69.6843 215.121 69.5343 214.867 69.8633C214.613 70.1923 214.702 70.9477 214.66 71.3425Z" fill="#FBBEBE"/>
<path opacity="0.1" d="M214.66 71.3425C214.6 71.8847 214.425 72.4716 213.964 72.7611C213.586 72.998 213.11 72.9769 212.675 73.069C212.218 73.1829 211.794 73.4033 211.438 73.7124C211.082 74.0215 210.803 74.4107 210.624 74.8483C210.277 75.7317 210.209 76.7015 210.431 77.625C210.532 78.0783 210.664 78.5242 210.826 78.9594C211.284 80.2544 211.834 81.5362 212.683 82.6153C213.409 83.4701 214.226 84.2432 215.119 84.9209C215.671 85.3736 216.242 85.8368 216.923 86.05C217.385 86.1729 217.862 86.2357 218.34 86.2369C218.929 86.2658 219.555 86.2843 220.066 85.9895C220.852 85.5341 221.087 84.5261 221.512 83.7207C221.876 83.0338 222.415 82.4547 222.753 81.7546C222.992 81.2055 223.168 80.6306 223.277 80.0412L224.002 76.8012C224.264 75.6273 224.505 74.3008 223.845 73.2928C223.799 73.2096 223.732 73.1397 223.651 73.0901C223.526 73.039 223.389 73.0244 223.256 73.048C222.421 73.1044 221.587 72.9131 220.859 72.4979C220.744 72.4403 220.642 72.3597 220.558 72.261C220.451 72.0943 220.387 71.9035 220.372 71.7057C220.301 71.3037 220.189 70.9103 220.037 70.5318C219.994 70.3967 219.915 70.2757 219.809 70.1818C219.699 70.1115 219.573 70.0691 219.443 70.0581C218.321 69.8744 217.191 69.7549 216.056 69.7001C215.682 69.6843 215.121 69.5343 214.867 69.8633C214.613 70.1923 214.702 70.9477 214.66 71.3425Z" fill="black"/>
<path d="M212.557 73.2059C211.95 73.0243 211.321 72.9243 210.687 72.9085C209.189 72.8716 207.589 73.3928 206.722 74.6219C206.135 75.508 205.92 76.5908 206.122 77.6355C206.332 78.6725 206.801 79.6389 207.484 80.4439C207.88 80.8662 208.231 81.3284 208.532 81.823C208.946 82.6126 208.956 83.5549 209.056 84.455C209.317 86.5896 210.224 88.6004 210.585 90.7218C210.946 92.8432 210.632 95.3067 208.964 96.6595C208.684 96.8859 208.346 97.1228 208.322 97.4834C208.283 98.0598 209.029 98.3072 209.603 98.3598C211.318 98.5256 213.078 98.6862 214.744 98.2414C215.435 98.0571 216.098 97.7702 216.8 97.6386C218.583 97.3044 220.375 97.9887 222.156 98.3203C223.447 98.5331 224.753 98.6396 226.061 98.6388C226.366 98.666 226.674 98.6256 226.962 98.5204C227.104 98.4643 227.225 98.3642 227.307 98.2346C227.389 98.1049 227.427 97.9524 227.417 97.7992C227.36 97.6003 227.254 97.4191 227.108 97.2728C226.207 96.1516 225.932 94.6671 225.686 93.2485L224.874 88.4714C224.432 85.9237 224.02 83.1574 225.22 80.8676C226.084 79.2226 227.671 78.0645 228.583 76.4459C228.905 75.9558 229.051 75.3699 228.997 74.7851C228.86 73.9718 228.13 73.3901 227.381 73.048C225.941 72.4012 224.308 72.3418 222.826 72.8821C222.852 74.0218 222.564 75.1746 222.376 76.3037L222.059 78.1461C221.898 79.2318 221.662 80.3048 221.352 81.3572C221.236 81.7773 221.044 82.1719 220.783 82.5205C220.504 82.833 220.162 83.0831 219.78 83.2548C218.953 83.6611 218.043 83.8692 217.122 83.8628C216.724 83.8709 216.327 83.8104 215.949 83.6838C215.325 83.4575 214.82 82.9916 214.333 82.5389C214.173 82.4021 214.029 82.2466 213.906 82.0757C213.778 81.8559 213.68 81.6194 213.615 81.3729C213.403 80.7294 213.237 80.0715 213.118 79.4042C213.036 78.8936 213.013 78.3751 212.976 77.8592C212.861 76.3643 212.864 74.6719 212.557 73.2059Z" fill="#FBA403"/>
<path d="M210.981 103.408C210.981 103.408 210.36 111.678 214.241 113.083C218.123 114.489 214.707 106.216 214.707 106.216L213.466 103.719L210.981 103.408Z" fill="#FBBEBE"/>
<path d="M224.18 103.408C224.18 103.408 224.801 111.678 220.92 113.083C217.038 114.489 220.454 106.216 220.454 106.216L221.695 103.719L224.18 103.408Z" fill="#FBBEBE"/>
<path opacity="0.1" d="M207.565 75.7879L206.324 77.8172C206.324 77.8172 207.411 84.8393 207.565 86.0869C207.698 86.9853 207.906 87.871 208.186 88.7347C208.186 88.7347 208.341 92.48 208.341 93.8828C208.341 95.2857 209.126 97.6282 209.126 97.6282C209.235 98.9548 209.499 100.264 209.912 101.529C210.533 103.247 211.156 105.274 211.156 105.274C211.156 105.274 211.942 103.09 215.037 106.366C215.383 106.012 215.577 105.536 215.577 105.04C215.577 104.544 215.383 104.067 215.037 103.713C215.037 103.713 214.105 99.5021 214.105 97.3176C214.105 95.133 212.397 84.684 212.397 84.684C212.397 84.684 211.292 72.8217 207.565 75.7879Z" fill="black"/>
<path d="M207.259 75.6327L206.018 77.6593C206.018 77.6593 207.104 84.6814 207.259 85.9316C207.393 86.831 207.602 87.7175 207.882 88.5821C207.882 88.5821 208.045 92.3274 208.045 93.7355C208.045 95.1436 208.83 97.4808 208.83 97.4808C208.94 98.8074 209.204 100.116 209.616 101.381C210.237 103.097 210.857 105.127 210.857 105.127C210.857 105.127 211.643 102.942 214.739 106.219C215.086 105.865 215.28 105.389 215.28 104.892C215.28 104.396 215.086 103.92 214.739 103.566C214.739 103.566 213.806 99.3548 213.806 97.1676C213.806 94.9804 212.099 84.5341 212.099 84.5341C212.099 84.5341 210.981 72.6796 207.259 75.6327Z" fill="#FBA403"/>
<path opacity="0.1" d="M227.75 74.5378L228.536 75.4669C228.536 75.4669 229.452 80.7809 227.433 87.4898L226.812 93.5776C226.812 93.5776 225.725 98.7258 225.568 99.976C225.411 101.226 225.414 101.379 225.105 101.847C225.01 101.957 224.957 102.097 224.957 102.242C224.957 102.387 225.01 102.528 225.105 102.637L224.172 106.072C224.172 106.072 222.774 104.356 219.982 106.54C219.982 106.54 219.196 105.29 219.827 104.198C220.459 103.105 220.448 102.637 220.294 102.326C220.139 102.016 220.914 100.452 220.914 100.142C220.914 99.8312 222.001 92.6511 222.001 92.6511C222.001 92.6511 222.467 85.629 222.934 83.2892C223.219 81.8495 223.211 78.6384 223.164 76.3802C223.114 74.0298 225.945 72.7533 227.616 74.4088C227.661 74.443 227.705 74.4904 227.75 74.5378Z" fill="black"/>
<path d="M228.211 74.2272L228.996 75.1563C228.996 75.1563 229.91 80.4676 227.894 87.1792L227.273 93.2643C227.273 93.2643 226.186 98.4151 226.029 99.6627C225.872 100.91 225.875 101.068 225.563 101.534C225.469 101.644 225.418 101.784 225.418 101.929C225.418 102.074 225.469 102.214 225.563 102.324L224.633 105.745C224.633 105.745 223.235 104.029 220.443 106.214C220.443 106.214 219.657 104.966 220.288 103.874C220.92 102.782 220.909 102.313 220.752 102C220.595 101.687 221.375 100.129 221.375 99.8154C221.375 99.5022 222.462 92.3247 222.462 92.3247C222.462 92.3247 222.928 85.3026 223.392 82.9627C223.855 80.6229 223.549 73.6008 223.549 73.6008C223.549 73.6008 226.042 71.89 228.211 74.2272Z" fill="#FBA403"/>
<path d="M217.814 72.0426C221.244 72.0426 224.026 69.2474 224.026 65.7995C224.026 62.3515 221.244 59.5564 217.814 59.5564C214.383 59.5564 211.601 62.3515 211.601 65.7995C211.601 69.2474 214.383 72.0426 217.814 72.0426Z" fill="#FBBEBE"/>
<path opacity="0.1" d="M221.053 56.427C220.755 57.2647 220.209 57.9908 219.488 58.5082C218.768 59.0255 217.907 59.3095 217.022 59.3221C216.137 59.3347 215.269 59.0753 214.534 58.5786C213.799 58.082 213.233 57.3717 212.911 56.5428C215.333 55.5637 217.814 56.4376 217.814 56.4376C219.045 55.998 220.124 56.0401 221.053 56.427Z" fill="black"/>
<path d="M217.814 56.7508C217.814 56.7508 205.858 52.5396 208.807 72.9797C208.807 72.9797 211.447 74.6957 213.466 73.6034C213.466 73.6034 212.068 59.3907 217.502 60.0276C222.936 60.6646 222.007 73.2902 222.007 73.2902C222.007 73.2902 225.113 74.2272 226.043 72.5006C226.972 70.774 225.734 53.9398 217.814 56.7508Z" fill="#252525"/>
<path opacity="0.1" d="M217.502 59.0906C213.772 58.6616 213.262 65.2126 213.311 69.3686C213.359 65.239 214.05 59.6302 217.502 60.0276C221.383 60.4724 222.017 67.0419 222.064 70.7635C222.106 67.3498 221.734 59.5775 217.502 59.0906Z" fill="black"/>
<path opacity="0.1" d="M208.807 72.0426C208.537 70.2489 208.382 68.4396 208.343 66.626C208.33 68.7493 208.485 70.8704 208.807 72.9691C208.807 72.9691 211.447 74.6851 213.466 73.5928C213.466 73.5928 213.432 73.256 213.395 72.6901C211.387 73.7323 208.807 72.0426 208.807 72.0426Z" fill="black"/>
<path opacity="0.1" d="M226.042 71.5741C225.176 73.1717 222.423 72.4716 222.048 72.3637C222.03 72.9427 222.007 73.2875 222.007 73.2875C222.007 73.2875 225.113 74.2245 226.042 72.4979C226.236 72.1426 226.336 71.1451 226.304 69.8107C226.278 70.6819 226.186 71.3083 226.042 71.5741Z" fill="black"/>
<path d="M110.07 28.7169C110.04 28.7169 110.025 28.698 110.025 28.6603L110.048 20.8792C110.048 20.849 110.063 20.8339 110.093 20.8339H112.381C112.789 20.8339 113.162 20.9358 113.502 21.1397C113.849 21.336 114.125 21.6041 114.329 21.9438C114.533 22.2761 114.635 22.6536 114.635 23.0765C114.635 23.3558 114.593 23.6088 114.51 23.8353C114.427 24.0543 114.329 24.2431 114.216 24.4016C114.102 24.5527 114 24.6659 113.91 24.7414C114.318 25.1945 114.521 25.7268 114.521 26.3384L114.533 28.6603C114.533 28.698 114.514 28.7169 114.476 28.7169H113.196C113.166 28.7169 113.151 28.7056 113.151 28.6829V26.3384C113.151 26.0666 113.053 25.8325 112.856 25.6362C112.668 25.4323 112.434 25.3304 112.154 25.3304H111.407L111.395 28.6603C111.395 28.698 111.38 28.7169 111.35 28.7169H110.07ZM111.407 23.9712H112.381C112.615 23.9712 112.822 23.8844 113.004 23.7107C113.185 23.5371 113.276 23.3256 113.276 23.0765C113.276 22.8348 113.185 22.6272 113.004 22.4535C112.83 22.2799 112.622 22.193 112.381 22.193H111.407V23.9712Z" fill="#FBA403"/>
<path d="M115.546 28.7169C115.508 28.7169 115.489 28.698 115.489 28.6603L115.5 20.8792C115.5 20.849 115.515 20.8339 115.546 20.8339H116.814C116.844 20.8339 116.859 20.849 116.859 20.8792L116.871 28.6603C116.871 28.698 116.856 28.7169 116.825 28.7169H115.546Z" fill="#FBA403"/>
<path d="M117.924 28.7169C117.886 28.7169 117.867 28.698 117.867 28.6603L117.89 20.8792C117.89 20.849 117.905 20.8339 117.935 20.8339L120.053 20.8225C120.468 20.815 120.846 20.9132 121.186 21.117C121.533 21.3209 121.809 21.5965 122.012 21.9438C122.216 22.2836 122.318 22.6612 122.318 23.0765V26.3271C122.318 26.765 122.212 27.1652 122.001 27.5277C121.79 27.8826 121.506 28.1657 121.152 28.3771C120.797 28.5886 120.397 28.698 119.951 28.7056L117.924 28.7169ZM119.249 27.3238H119.951C120.23 27.3238 120.464 27.2256 120.653 27.0293C120.85 26.833 120.948 26.5989 120.948 26.3271V23.0651C120.948 22.8235 120.857 22.6159 120.676 22.4422C120.502 22.261 120.295 22.1741 120.053 22.1817L119.26 22.193L119.249 27.3238Z" fill="#FBA403"/>
<path d="M123.255 28.7169C123.224 28.7169 123.209 28.698 123.209 28.6603L123.221 20.8792C123.221 20.849 123.236 20.8339 123.266 20.8339H126.902C126.932 20.8339 126.947 20.8528 126.947 20.8905V22.159C126.947 22.1892 126.932 22.2043 126.902 22.2043H124.58V23.9712H126.902C126.932 23.9712 126.947 23.9863 126.947 24.0165L126.958 25.2964C126.958 25.3266 126.943 25.3417 126.913 25.3417H124.58V27.3238H126.913C126.943 27.3238 126.958 27.3427 126.958 27.3804C126.958 27.4182 126.958 28.6716 126.958 28.6716C126.958 28.7018 126.943 28.7169 126.913 28.7169C126.883 28.7169 123.255 28.7169 123.255 28.7169Z" fill="#FBA403"/>
<path d="M117.257 17.7796L117.261 17.6633C117.263 17.5903 117.27 17.5105 117.281 17.4239L117.309 17.2221C117.314 17.1742 117.32 17.1309 117.326 17.0921C117.218 17.2107 117.13 17.303 117.064 17.3691L116.868 17.5607C116.427 17.9722 116.165 18.178 116.081 18.178C115.957 18.178 115.826 18.1512 115.689 18.0976C115.615 18.068 115.573 18.0372 115.563 18.0053C115.547 17.9654 115.539 17.9112 115.539 17.8428C115.539 17.7733 115.541 17.7094 115.546 17.6513C115.55 17.5932 115.556 17.5356 115.563 17.4786C115.57 17.4204 115.576 17.3652 115.583 17.3127C115.591 17.2591 115.598 17.2124 115.602 17.1725C115.613 17.0824 115.616 17.0374 115.609 17.0374L114.973 17.8189C114.673 18.1712 114.503 18.3661 114.461 18.4037C114.374 18.4835 114.277 18.5234 114.171 18.5234C114.118 18.5234 114.075 18.5103 114.041 18.4841C114.007 18.4579 113.99 18.4254 113.99 18.3866C113.99 18.3091 114.022 18.2282 114.087 18.1438L115.606 16.2131L115.783 15.9994C115.995 15.7497 116.134 15.6249 116.201 15.6249C116.293 15.6249 116.381 15.6482 116.464 15.695C116.538 15.736 116.58 15.7759 116.591 15.8147C116.595 15.8295 116.585 15.8985 116.561 16.0216L116.502 16.3448C116.434 16.7051 116.401 16.9376 116.401 17.0425C116.401 17.1463 116.413 17.1981 116.437 17.1981C116.514 17.1981 116.663 17.071 116.885 16.8168L117.439 16.1533C117.561 16.0131 117.642 15.9333 117.682 15.9139C117.693 15.9082 117.709 15.9053 117.731 15.9053C117.753 15.9053 117.777 15.9082 117.803 15.9139C117.83 15.9196 117.858 15.927 117.885 15.9361C117.914 15.9452 117.941 15.9561 117.967 15.9686C117.993 15.9811 118.017 15.9943 118.037 16.0079C118.082 16.0376 118.103 16.0621 118.102 16.0815C118.102 16.0997 118.098 16.1402 118.089 16.2029C118.079 16.2644 118.068 16.3397 118.054 16.4286C117.96 17.018 117.91 17.36 117.906 17.4546C117.902 17.5493 117.912 17.6086 117.935 17.6325C117.959 17.6564 117.993 17.6684 118.039 17.6684C118.122 17.6684 118.243 17.6188 118.401 17.5196C118.509 17.4524 118.597 17.4187 118.667 17.4187C118.737 17.4187 118.773 17.4524 118.773 17.5196C118.773 17.5892 118.735 17.6735 118.66 17.7727C118.551 17.9164 118.39 18.0463 118.174 18.1626C117.993 18.2595 117.821 18.308 117.658 18.308C117.391 18.308 117.257 18.1318 117.257 17.7796Z" fill="#FBA403"/>
<path d="M119.436 17.4683C119.436 17.5208 119.471 17.547 119.54 17.547C119.682 17.547 119.922 17.3709 120.262 17.0186L120.428 16.851C120.541 16.7404 120.615 16.6851 120.652 16.6851C120.688 16.6851 120.721 16.6914 120.749 16.7039C120.778 16.7165 120.803 16.7324 120.825 16.7518C120.869 16.7917 120.891 16.8345 120.891 16.8801C120.891 16.9245 120.886 16.9741 120.876 17.0288C120.867 17.0824 120.852 17.1428 120.831 17.2101C120.794 17.3355 120.726 17.5037 120.628 17.7146L120.558 17.8651L120.849 17.6017L121.444 17.0921C121.504 17.0465 121.554 17.0237 121.594 17.0237C121.681 17.0237 121.724 17.0653 121.724 17.1485C121.724 17.234 121.668 17.3441 121.557 17.4786C121.522 17.5208 121.485 17.5601 121.445 17.5966L121.042 17.9471L120.255 18.6124C120.186 18.6728 120.133 18.7207 120.098 18.756C120.056 18.8244 120.023 18.8751 119.999 18.9082C119.976 18.9424 119.953 18.9783 119.93 19.0159C119.907 19.0547 119.885 19.0878 119.864 19.1151C119.817 19.1744 119.77 19.204 119.723 19.204C119.674 19.204 119.627 19.1841 119.581 19.1442C119.497 19.0701 119.455 19.004 119.455 18.9458C119.455 18.8877 119.471 18.8198 119.503 18.7423C119.535 18.6659 119.576 18.5782 119.628 18.479L119.99 17.8103C119.816 17.9677 119.679 18.072 119.58 18.1233C119.481 18.1734 119.397 18.2065 119.328 18.2225C119.261 18.2396 119.189 18.2481 119.113 18.2481C119.038 18.2481 118.971 18.2322 118.914 18.2002C118.857 18.1695 118.81 18.1278 118.773 18.0754C118.7 17.9717 118.663 17.8366 118.663 17.6701C118.663 17.4934 118.708 17.319 118.796 17.1468C118.882 16.9781 118.995 16.8424 119.135 16.7398C119.283 16.6304 119.435 16.5757 119.592 16.5757C119.748 16.5757 119.826 16.6367 119.826 16.7587C119.826 16.835 119.761 16.9485 119.631 17.099C119.501 17.2483 119.436 17.3714 119.436 17.4683Z" fill="#FBA403"/>
<rect x="120.107" y="23.1478" width="0.849042" height="0.812554" fill="#FBA403"/>
<rect x="119.258" y="23.9604" width="0.849042" height="0.812554" fill="#FBA403"/>
<rect x="120.107" y="24.7661" width="0.849042" height="0.812554" fill="#FBA403"/>
<rect x="119.258" y="25.5786" width="0.849042" height="0.812554" fill="#FBA403"/>
<path fill-rule="evenodd" clip-rule="evenodd" d="M108.215 17.3075C107.013 17.3075 105.934 18.0457 105.499 19.1661L102.348 27.2847C101.607 29.1936 103.016 31.2509 105.064 31.2509H131.937C133.985 31.2509 135.393 29.1936 134.652 27.2847L131.501 19.1661C131.066 18.0457 129.988 17.3075 128.786 17.3075H123.828V16.6603H128.786C130.255 16.6603 131.573 17.5626 132.104 18.9319L135.255 27.0505C136.161 29.3836 134.44 31.8982 131.937 31.8982H105.064C102.561 31.8982 100.839 29.3836 101.745 27.0505L104.896 18.9319C105.428 17.5626 106.746 16.6603 108.215 16.6603H112.546V17.3075H108.215Z" fill="#FBA403"/>
<path d="M118.5 34.842V31.761" stroke="#FBA403"/>
</g>
<defs>
<clipPath id="clip0_505_2066">
<rect width="271" height="186" fill="white" transform="translate(0 0.734131)"/>
</clipPath>
</defs>
</svg>
