<svg width="200" height="169" viewBox="0 0 200 169" fill="none" xmlns="http://www.w3.org/2000/svg">
<rect x="7.10229" y="8.44397" width="163.133" height="126.068" rx="8.5" fill="#2E2E2E" stroke="#565656"/>
<rect x="60.0479" y="16.7087" width="96.0539" height="10.7941" rx="5.39704" fill="#262626"/>
<path d="M72.3699 80.8493C72.3127 80.8493 72.2842 80.8136 72.2842 80.7422L72.327 66.0273C72.327 65.9702 72.3556 65.9416 72.4127 65.9416H76.7393C77.5104 65.9416 78.2173 66.1344 78.8598 66.5199C79.5167 66.8912 80.0379 67.3981 80.4234 68.0407C80.809 68.669 81.0017 69.3829 81.0017 70.1826C81.0017 70.7109 80.9232 71.1893 80.7661 71.6177C80.609 72.0318 80.4234 72.3887 80.2092 72.6886C79.995 72.9742 79.8023 73.1884 79.6309 73.3312C80.402 74.1879 80.7875 75.1946 80.7875 76.3513L80.809 80.7422C80.809 80.8136 80.7733 80.8493 80.7019 80.8493H78.2815C78.2244 80.8493 78.1958 80.8279 78.1958 80.785V76.3513C78.1958 75.8372 78.0102 75.3946 77.6389 75.0233C77.282 74.6377 76.8393 74.445 76.311 74.445H74.8973L74.8759 80.7422C74.8759 80.8136 74.8473 80.8493 74.7902 80.8493H72.3699ZM74.8973 71.8747H76.7393C77.182 71.8747 77.5747 71.7105 77.9174 71.3821C78.2601 71.0536 78.4314 70.6538 78.4314 70.1826C78.4314 69.7256 78.2601 69.333 77.9174 69.0045C77.589 68.6761 77.1963 68.5119 76.7393 68.5119H74.8973V71.8747Z" fill="#FBA403"/>
<path d="M82.7243 80.8493C82.6529 80.8493 82.6172 80.8136 82.6172 80.7422L82.6386 66.0273C82.6386 65.9702 82.6672 65.9416 82.7243 65.9416H85.1232C85.1803 65.9416 85.2089 65.9702 85.2089 66.0273L85.2303 80.7422C85.2303 80.8136 85.2018 80.8493 85.1446 80.8493H82.7243Z" fill="#FBA403"/>
<path d="M87.2214 80.8493C87.1501 80.8493 87.1144 80.8136 87.1144 80.7422L87.1572 66.0273C87.1572 65.9702 87.1857 65.9416 87.2429 65.9416L91.2482 65.9202C92.0336 65.9059 92.7476 66.0916 93.3901 66.4771C94.047 66.8626 94.5682 67.3838 94.9537 68.0407C95.3393 68.6833 95.532 69.3972 95.532 70.1826V76.3299C95.532 77.1581 95.3321 77.9149 94.9323 78.6003C94.5325 79.2714 93.997 79.8069 93.3259 80.2067C92.6547 80.6065 91.8979 80.8136 91.0555 80.8279L87.2214 80.8493ZM89.7275 78.2147H91.0555C91.5838 78.2147 92.0265 78.0291 92.3834 77.6578C92.7547 77.2866 92.9403 76.8439 92.9403 76.3299V70.1612C92.9403 69.7042 92.769 69.3115 92.4263 68.9831C92.0978 68.6404 91.7052 68.4762 91.2482 68.4905L89.7489 68.5119L89.7275 78.2147Z" fill="#FBA403"/>
<path d="M97.303 80.8493C97.2458 80.8493 97.2173 80.8136 97.2173 80.7422L97.2387 66.0273C97.2387 65.9702 97.2673 65.9416 97.3244 65.9416H104.2C104.257 65.9416 104.286 65.9773 104.286 66.0487V68.4476C104.286 68.5048 104.257 68.5333 104.2 68.5333H99.809V71.8747H104.2C104.257 71.8747 104.286 71.9033 104.286 71.9604L104.307 74.3807C104.307 74.4378 104.278 74.4664 104.221 74.4664H99.809V78.2147H104.221C104.278 78.2147 104.307 78.2504 104.307 78.3218C104.307 78.3932 104.307 80.7636 104.307 80.7636C104.307 80.8207 104.278 80.8493 104.221 80.8493C104.164 80.8493 97.303 80.8493 97.303 80.8493Z" fill="#FBA403"/>
<path d="M85.9615 60.1657L85.968 59.9458C85.9723 59.8078 85.9852 59.6569 86.0068 59.4931L86.0585 59.1115C86.0693 59.0209 86.0801 58.939 86.0908 58.8657C85.886 59.0899 85.7211 59.2645 85.5961 59.3896L85.2242 59.7518C84.392 60.5301 83.8961 60.9192 83.7366 60.9192C83.5016 60.9192 83.2547 60.8686 82.996 60.7672C82.8559 60.7112 82.7761 60.653 82.7567 60.5926C82.7265 60.5171 82.7114 60.4147 82.7114 60.2854C82.7114 60.1539 82.7157 60.0331 82.7244 59.9232C82.733 59.8132 82.7438 59.7044 82.7567 59.5966C82.7696 59.4866 82.7826 59.382 82.7955 59.2829C82.8106 59.1815 82.8224 59.0931 82.8311 59.0177C82.8526 58.8474 82.8569 58.7622 82.844 58.7622L81.641 60.2401C81.074 60.9063 80.7517 61.275 80.6741 61.3461C80.508 61.497 80.3248 61.5725 80.1243 61.5725C80.0251 61.5725 79.9432 61.5477 79.8785 61.4981C79.8138 61.4485 79.7815 61.3871 79.7815 61.3138C79.7815 61.1672 79.8429 61.0141 79.9658 60.8546L82.8375 57.2035L83.1739 56.7992C83.5749 56.3271 83.8379 56.091 83.9629 56.091C84.1376 56.091 84.3036 56.1352 84.461 56.2236C84.6011 56.3012 84.6809 56.3767 84.7003 56.45C84.7089 56.478 84.6906 56.6084 84.6453 56.8413L84.5321 57.4525C84.4049 58.1338 84.3413 58.5736 84.3413 58.7719C84.3413 58.9681 84.3639 59.0662 84.4092 59.0662C84.5558 59.0662 84.8382 58.8258 85.2565 58.345L86.3043 57.0903C86.535 56.8251 86.688 56.6742 86.7635 56.6375C86.7851 56.6268 86.8163 56.6214 86.8573 56.6214C86.8982 56.6214 86.9435 56.6268 86.9931 56.6375C87.0449 56.6483 87.0966 56.6623 87.1483 56.6796C87.2022 56.6968 87.254 56.7173 87.3036 56.741C87.3532 56.7647 87.3973 56.7895 87.4362 56.8154C87.5202 56.8715 87.5612 56.9178 87.559 56.9545C87.559 56.989 87.5504 57.0655 87.5332 57.1841C87.5159 57.3005 87.4944 57.4428 87.4685 57.6109C87.2896 58.7256 87.1958 59.3723 87.1871 59.5513C87.1807 59.7302 87.199 59.8423 87.2421 59.8876C87.2874 59.9329 87.3532 59.9555 87.4394 59.9555C87.5968 59.9555 87.8253 59.8617 88.125 59.6742C88.3276 59.547 88.4947 59.4834 88.6262 59.4834C88.7599 59.4834 88.8267 59.547 88.8267 59.6742C88.8267 59.8057 88.7556 59.9652 88.6133 60.1528C88.4085 60.4244 88.1023 60.6702 87.6949 60.8901C87.3521 61.0734 87.0265 61.165 86.7182 61.165C86.2137 61.165 85.9615 60.8319 85.9615 60.1657Z" fill="#FBA403"/>
<path d="M90.0815 59.5772C90.0815 59.6763 90.1472 59.7259 90.2788 59.7259C90.5461 59.7259 91.001 59.3928 91.6435 58.7266L91.9572 58.4097C92.1706 58.2006 92.3118 58.096 92.3808 58.096C92.4498 58.096 92.5112 58.1079 92.5651 58.1316C92.619 58.1553 92.6665 58.1855 92.7074 58.2221C92.7915 58.2976 92.8335 58.3785 92.8335 58.4647C92.8335 58.5488 92.8238 58.6426 92.8044 58.746C92.7872 58.8474 92.7592 58.9616 92.7204 59.0888C92.6492 59.326 92.5209 59.644 92.3355 60.0428L92.2029 60.3274L92.7527 59.8294L93.8781 58.8657C93.9924 58.7795 94.0872 58.7363 94.1627 58.7363C94.3265 58.7363 94.4085 58.815 94.4085 58.9724C94.4085 59.1341 94.3028 59.3422 94.0915 59.5966C94.0269 59.6763 93.9568 59.7507 93.8813 59.8197L93.1181 60.4827L91.6305 61.7406C91.499 61.8549 91.3998 61.9455 91.333 62.0123C91.2532 62.1416 91.1907 62.2376 91.1454 62.3001C91.1023 62.3648 91.0592 62.4327 91.0161 62.5038C90.973 62.5771 90.9309 62.6397 90.89 62.6914C90.8016 62.8035 90.7132 62.8596 90.6248 62.8596C90.5321 62.8596 90.4426 62.8218 90.3564 62.7464C90.1968 62.6063 90.1171 62.4812 90.1171 62.3713C90.1171 62.2613 90.1472 62.133 90.2076 61.9864C90.268 61.842 90.3467 61.676 90.4437 61.4884L91.1293 60.2239C90.7994 60.5215 90.5407 60.7187 90.3531 60.8157C90.1656 60.9106 90.0071 60.9731 89.8778 61.0033C89.7506 61.0356 89.6147 61.0518 89.4703 61.0518C89.328 61.0518 89.2029 61.0216 89.0951 60.9613C88.9874 60.9031 88.8979 60.8244 88.8267 60.7252C88.6888 60.529 88.6198 60.2735 88.6198 59.9588C88.6198 59.6246 88.7038 59.2947 88.872 58.9692C89.0337 58.6501 89.2471 58.3935 89.5123 58.1995C89.7926 57.9925 90.0804 57.8891 90.3758 57.8891C90.6711 57.8891 90.8188 58.0044 90.8188 58.2351C90.8188 58.3795 90.6959 58.594 90.4502 58.8786C90.2044 59.1611 90.0815 59.3939 90.0815 59.5772Z" fill="#FBA403"/>
<rect x="91.3511" y="70.3176" width="1.60562" height="1.53662" fill="#FBA403"/>
<rect x="89.7458" y="71.8542" width="1.60562" height="1.53662" fill="#FBA403"/>
<rect x="91.3511" y="73.3778" width="1.60562" height="1.53662" fill="#FBA403"/>
<rect x="89.7458" y="74.9145" width="1.60562" height="1.53662" fill="#FBA403"/>
<path fill-rule="evenodd" clip-rule="evenodd" d="M68.8606 59.273C66.5879 59.273 64.5485 60.6691 63.7261 62.7879L57.7671 78.1409C56.3659 81.7509 59.0293 85.6415 62.9017 85.6415H113.722C117.594 85.6415 120.258 81.7509 118.857 78.1409L112.898 62.7879C112.075 60.6691 110.036 59.273 107.763 59.273H98.387V58.0491H107.763C110.541 58.0491 113.034 59.7554 114.039 62.345L119.998 77.698C121.71 82.1103 118.455 86.8655 113.722 86.8655H62.9017C58.1687 86.8655 54.9135 82.1103 56.6261 77.698L62.5851 62.345C63.5902 59.7554 66.0828 58.0491 68.8606 58.0491H77.0514V59.273H68.8606Z" fill="#FBA403"/>
<g filter="url(#filter0_i_608_1692)">
<path fill-rule="evenodd" clip-rule="evenodd" d="M21.8177 27.2577C24.663 27.2577 26.9696 24.9511 26.9696 22.1058C26.9696 19.2604 24.663 16.9539 21.8177 16.9539C18.9724 16.9539 16.6658 19.2604 16.6658 22.1058C16.6658 24.9511 18.9724 27.2577 21.8177 27.2577Z" fill="#EE6A5F"/>
</g>
<path d="M26.7196 22.1058C26.7196 24.813 24.5249 27.0077 21.8177 27.0077C19.1104 27.0077 16.9158 24.813 16.9158 22.1058C16.9158 19.3985 19.1104 17.2039 21.8177 17.2039C24.5249 17.2039 26.7196 19.3985 26.7196 22.1058Z" stroke="#CE5347" stroke-width="0.5"/>
<g filter="url(#filter1_i_608_1692)">
<path fill-rule="evenodd" clip-rule="evenodd" d="M38.9908 27.2577C41.8361 27.2577 44.1427 24.9511 44.1427 22.1058C44.1427 19.2604 41.8361 16.9539 38.9908 16.9539C36.1455 16.9539 33.8389 19.2604 33.8389 22.1058C33.8389 24.9511 36.1455 27.2577 38.9908 27.2577Z" fill="#F5BD4F"/>
</g>
<path d="M43.8927 22.1058C43.8927 24.813 41.698 27.0077 38.9908 27.0077C36.2835 27.0077 34.0889 24.813 34.0889 22.1058C34.0889 19.3985 36.2835 17.2039 38.9908 17.2039C41.698 17.2039 43.8927 19.3985 43.8927 22.1058Z" stroke="#D6A243" stroke-width="0.5"/>
<g filter="url(#filter2_i_608_1692)">
<path fill-rule="evenodd" clip-rule="evenodd" d="M56.1636 27.2577C59.009 27.2577 61.3156 24.9511 61.3156 22.1058C61.3156 19.2604 59.009 16.9539 56.1636 16.9539C53.3183 16.9539 51.0117 19.2604 51.0117 22.1058C51.0117 24.9511 53.3183 27.2577 56.1636 27.2577Z" fill="#61C454"/>
</g>
<path d="M61.0656 22.1058C61.0656 24.813 58.8709 27.0077 56.1636 27.0077C53.4564 27.0077 51.2617 24.813 51.2617 22.1058C51.2617 19.3985 53.4564 17.2039 56.1636 17.2039C58.8709 17.2039 61.0656 19.3985 61.0656 22.1058Z" stroke="#58A942" stroke-width="0.5"/>
<rect x="118.805" y="33.0141" width="74.5923" height="128.51" rx="13" fill="#565656"/>
<rect x="121.636" y="36.137" width="68.9308" height="118.291" rx="10" fill="#2E2E2E"/>
<path d="M148.99 41.174H163.213" stroke="#464646" stroke-width="2" stroke-linecap="round"/>
<path d="M142.832 149.572H169.371" stroke="#464646" stroke-width="2" stroke-linecap="round"/>
<path d="M142.877 100.904C142.83 100.904 142.806 100.874 142.806 100.815L142.841 88.608C142.841 88.5606 142.865 88.537 142.913 88.537H146.502C147.141 88.537 147.728 88.6969 148.261 89.0167C148.806 89.3247 149.238 89.7452 149.558 90.2783C149.878 90.7995 150.038 91.3918 150.038 92.0552C150.038 92.4935 149.973 92.8903 149.842 93.2457C149.712 93.5892 149.558 93.8853 149.38 94.1341C149.203 94.371 149.043 94.5487 148.901 94.6672C149.54 95.3779 149.86 96.213 149.86 97.1726L149.878 100.815C149.878 100.874 149.848 100.904 149.789 100.904H147.781C147.734 100.904 147.71 100.886 147.71 100.851V97.1726C147.71 96.7461 147.556 96.3789 147.248 96.0709C146.952 95.7511 146.585 95.5911 146.146 95.5911H144.974L144.956 100.815C144.956 100.874 144.932 100.904 144.885 100.904H142.877ZM144.974 93.4589H146.502C146.869 93.4589 147.195 93.3227 147.479 93.0502C147.763 92.7778 147.906 92.4461 147.906 92.0552C147.906 91.6761 147.763 91.3503 147.479 91.0779C147.207 90.8054 146.881 90.6692 146.502 90.6692H144.974V93.4589Z" fill="#FBA403"/>
<path d="M151.467 100.904C151.408 100.904 151.378 100.874 151.378 100.815L151.396 88.608C151.396 88.5606 151.419 88.537 151.467 88.537H153.457C153.504 88.537 153.528 88.5606 153.528 88.608L153.546 100.815C153.546 100.874 153.522 100.904 153.475 100.904H151.467Z" fill="#FBA403"/>
<path d="M155.198 100.904C155.138 100.904 155.109 100.874 155.109 100.815L155.144 88.608C155.144 88.5606 155.168 88.537 155.215 88.537L158.538 88.5192C159.19 88.5073 159.782 88.6613 160.315 88.9812C160.86 89.301 161.292 89.7334 161.612 90.2783C161.932 90.8114 162.092 91.4036 162.092 92.0552V97.1548C162.092 97.8418 161.926 98.4697 161.594 99.0383C161.263 99.595 160.818 100.039 160.262 100.371C159.705 100.703 159.077 100.874 158.378 100.886L155.198 100.904ZM157.276 98.7184H158.378C158.816 98.7184 159.184 98.5644 159.48 98.2564C159.788 97.9485 159.942 97.5812 159.942 97.1548V92.0374C159.942 91.6583 159.8 91.3326 159.515 91.0601C159.243 90.7758 158.917 90.6396 158.538 90.6514L157.294 90.6692L157.276 98.7184Z" fill="#FBA403"/>
<path d="M163.561 100.904C163.513 100.904 163.49 100.874 163.49 100.815L163.508 88.608C163.508 88.5606 163.531 88.537 163.579 88.537H169.282C169.33 88.537 169.353 88.5666 169.353 88.6258V90.6159C169.353 90.6633 169.33 90.687 169.282 90.687H165.64V93.4589H169.282C169.33 93.4589 169.353 93.4826 169.353 93.53L169.371 95.5378C169.371 95.5852 169.348 95.6089 169.3 95.6089H165.64V98.7184H169.3C169.348 98.7184 169.371 98.748 169.371 98.8073C169.371 98.8665 169.371 100.833 169.371 100.833C169.371 100.88 169.348 100.904 169.3 100.904C169.253 100.904 163.561 100.904 163.561 100.904Z" fill="#FBA403"/>
<path d="M154.152 83.7455L154.157 83.563C154.161 83.4486 154.172 83.3234 154.189 83.1874L154.232 82.8709C154.241 82.7958 154.25 82.7278 154.259 82.667C154.089 82.853 153.953 82.9979 153.849 83.1016L153.54 83.4021C152.85 84.0477 152.439 84.3706 152.306 84.3706C152.111 84.3706 151.906 84.3285 151.692 84.2445C151.576 84.198 151.509 84.1497 151.493 84.0996C151.468 84.037 151.456 83.952 151.456 83.8447C151.456 83.7356 151.459 83.6355 151.466 83.5443C151.474 83.453 151.483 83.3627 151.493 83.2733C151.504 83.1821 151.515 83.0953 151.525 83.0131C151.538 82.929 151.548 82.8557 151.555 82.7931C151.573 82.6518 151.576 82.5811 151.566 82.5811L150.568 83.8072C150.097 84.3598 149.83 84.6657 149.766 84.7247C149.628 84.8499 149.476 84.9125 149.31 84.9125C149.227 84.9125 149.159 84.8919 149.106 84.8508C149.052 84.8096 149.025 84.7587 149.025 84.6978C149.025 84.5762 149.076 84.4492 149.178 84.3169L151.56 81.288L151.839 80.9527C152.172 80.561 152.39 80.3652 152.494 80.3652C152.639 80.3652 152.777 80.4018 152.907 80.4752C153.023 80.5396 153.09 80.6022 153.106 80.663C153.113 80.6862 153.098 80.7944 153.06 80.9876L152.966 81.4946C152.861 82.0598 152.808 82.4246 152.808 82.5892C152.808 82.7519 152.827 82.8333 152.864 82.8333C152.986 82.8333 153.22 82.6339 153.567 82.2351L154.436 81.1941C154.628 80.9742 154.755 80.849 154.817 80.8186C154.835 80.8096 154.861 80.8051 154.895 80.8051C154.929 80.8051 154.967 80.8096 155.008 80.8186C155.051 80.8275 155.094 80.8391 155.136 80.8534C155.181 80.8677 155.224 80.8847 155.265 80.9044C155.306 80.9241 155.343 80.9447 155.375 80.9661C155.445 81.0126 155.479 81.0511 155.477 81.0815C155.477 81.1101 155.47 81.1736 155.456 81.2719C155.441 81.3685 155.424 81.4866 155.402 81.6261C155.254 82.5507 155.176 83.0873 155.169 83.2357C155.163 83.3842 155.179 83.4772 155.214 83.5147C155.252 83.5523 155.306 83.5711 155.378 83.5711C155.509 83.5711 155.698 83.4933 155.947 83.3377C156.115 83.2322 156.253 83.1794 156.363 83.1794C156.473 83.1794 156.529 83.2322 156.529 83.3377C156.529 83.4468 156.47 83.5791 156.352 83.7347C156.182 83.9601 155.928 84.164 155.59 84.3464C155.306 84.4984 155.035 84.5744 154.78 84.5744C154.361 84.5744 154.152 84.2981 154.152 83.7455Z" fill="#FBA403"/>
<path d="M157.57 83.2572C157.57 83.3395 157.624 83.3806 157.733 83.3806C157.955 83.3806 158.333 83.1043 158.866 82.5516L159.126 82.2887C159.303 82.1152 159.42 82.0285 159.477 82.0285C159.534 82.0285 159.585 82.0383 159.63 82.058C159.675 82.0777 159.714 82.1027 159.748 82.1331C159.818 82.1957 159.853 82.2628 159.853 82.3343C159.853 82.4041 159.845 82.4819 159.829 82.5677C159.814 82.6518 159.791 82.7466 159.759 82.8521C159.7 83.0488 159.593 83.3126 159.44 83.6435L159.33 83.8796L159.786 83.4665L160.719 82.667C160.814 82.5955 160.893 82.5597 160.955 82.5597C161.091 82.5597 161.159 82.625 161.159 82.7555C161.159 82.8897 161.072 83.0623 160.896 83.2733C160.843 83.3395 160.785 83.4012 160.722 83.4584L160.089 84.0084L158.855 85.052C158.746 85.1468 158.663 85.2219 158.608 85.2773C158.542 85.3846 158.49 85.4642 158.452 85.5161C158.417 85.5697 158.381 85.6261 158.345 85.6851C158.309 85.7459 158.274 85.7978 158.24 85.8407C158.167 85.9337 158.094 85.9802 158.02 85.9802C157.944 85.9802 157.869 85.9489 157.798 85.8863C157.665 85.7701 157.599 85.6663 157.599 85.5751C157.599 85.4839 157.624 85.3775 157.674 85.2559C157.724 85.136 157.79 84.9983 157.87 84.8427L158.439 83.7938C158.165 84.0406 157.951 84.2042 157.795 84.2847C157.64 84.3634 157.508 84.4153 157.401 84.4403C157.295 84.4671 157.183 84.4805 157.063 84.4805C156.945 84.4805 156.841 84.4555 156.752 84.4054C156.662 84.3571 156.588 84.2919 156.529 84.2096C156.414 84.0468 156.357 83.8349 156.357 83.5738C156.357 83.2965 156.427 83.0229 156.566 82.7528C156.701 82.4881 156.878 82.2753 157.098 82.1143C157.33 81.9426 157.569 81.8568 157.814 81.8568C158.059 81.8568 158.181 81.9525 158.181 82.1439C158.181 82.2637 158.079 82.4416 157.876 82.6777C157.672 82.912 157.57 83.1052 157.57 83.2572Z" fill="#FBA403"/>
<rect x="158.623" y="92.1672" width="1.33199" height="1.27474" fill="#FBA403"/>
<rect x="157.291" y="93.442" width="1.33199" height="1.27474" fill="#FBA403"/>
<rect x="158.623" y="94.7059" width="1.33199" height="1.27474" fill="#FBA403"/>
<rect x="157.291" y="95.9806" width="1.33199" height="1.27474" fill="#FBA403"/>
<path fill-rule="evenodd" clip-rule="evenodd" d="M139.966 83.0048C138.08 83.0048 136.388 84.1629 135.706 85.9206L130.763 98.6571C129.6 101.652 131.81 104.879 135.022 104.879H177.181C180.394 104.879 182.603 101.652 181.441 98.6571L176.498 85.9206C175.815 84.1629 174.123 83.0048 172.238 83.0048H164.46V81.9894H172.238C174.542 81.9894 176.61 83.4049 177.444 85.5533L182.388 98.2897C183.808 101.95 181.108 105.895 177.181 105.895H135.022C131.096 105.895 128.395 101.95 129.816 98.2897L134.759 85.5533C135.593 83.405 137.661 81.9894 139.966 81.9894H146.76V83.0048H139.966Z" fill="#FBA403"/>
<defs>
<filter id="filter0_i_608_1692" x="16.6658" y="16.9539" width="10.304" height="10.3038" filterUnits="userSpaceOnUse" color-interpolation-filters="sRGB">
<feFlood flood-opacity="0" result="BackgroundImageFix"/>
<feBlend mode="normal" in="SourceGraphic" in2="BackgroundImageFix" result="shape"/>
<feColorMatrix in="SourceAlpha" type="matrix" values="0 0 0 0 0 0 0 0 0 0 0 0 0 0 0 0 0 0 127 0" result="hardAlpha"/>
<feOffset/>
<feGaussianBlur stdDeviation="3"/>
<feComposite in2="hardAlpha" operator="arithmetic" k2="-1" k3="1"/>
<feColorMatrix type="matrix" values="0 0 0 0 0.92549 0 0 0 0 0.427451 0 0 0 0 0.384314 0 0 0 1 0"/>
<feBlend mode="normal" in2="shape" result="effect1_innerShadow_608_1692"/>
</filter>
<filter id="filter1_i_608_1692" x="33.8389" y="16.9539" width="10.3037" height="10.3038" filterUnits="userSpaceOnUse" color-interpolation-filters="sRGB">
<feFlood flood-opacity="0" result="BackgroundImageFix"/>
<feBlend mode="normal" in="SourceGraphic" in2="BackgroundImageFix" result="shape"/>
<feColorMatrix in="SourceAlpha" type="matrix" values="0 0 0 0 0 0 0 0 0 0 0 0 0 0 0 0 0 0 127 0" result="hardAlpha"/>
<feOffset/>
<feGaussianBlur stdDeviation="3"/>
<feComposite in2="hardAlpha" operator="arithmetic" k2="-1" k3="1"/>
<feColorMatrix type="matrix" values="0 0 0 0 0.960784 0 0 0 0 0.768627 0 0 0 0 0.317647 0 0 0 1 0"/>
<feBlend mode="normal" in2="shape" result="effect1_innerShadow_608_1692"/>
</filter>
<filter id="filter2_i_608_1692" x="51.0117" y="16.9539" width="10.3037" height="10.3038" filterUnits="userSpaceOnUse" color-interpolation-filters="sRGB">
<feFlood flood-opacity="0" result="BackgroundImageFix"/>
<feBlend mode="normal" in="SourceGraphic" in2="BackgroundImageFix" result="shape"/>
<feColorMatrix in="SourceAlpha" type="matrix" values="0 0 0 0 0 0 0 0 0 0 0 0 0 0 0 0 0 0 127 0" result="hardAlpha"/>
<feOffset/>
<feGaussianBlur stdDeviation="3"/>
<feComposite in2="hardAlpha" operator="arithmetic" k2="-1" k3="1"/>
<feColorMatrix type="matrix" values="0 0 0 0 0.407843 0 0 0 0 0.8 0 0 0 0 0.345098 0 0 0 1 0"/>
<feBlend mode="normal" in2="shape" result="effect1_innerShadow_608_1692"/>
</filter>
</defs>
</svg>
