<svg width="201" height="169" viewBox="0 0 201 169" fill="none" xmlns="http://www.w3.org/2000/svg">
<rect x="35.6545" y="41.6396" width="130.835" height="78.9111" rx="5.5" transform="rotate(-15.8196 35.6545 41.6396)" fill="#141414" stroke="#2D2D2D"/>
<path d="M120.578 46.9481C120.531 46.9611 120.499 46.9381 120.483 46.8789L117.151 34.6774C117.138 34.6301 117.156 34.5999 117.203 34.5868L120.788 33.5969C121.426 33.4205 122.056 33.4184 122.677 33.5909C123.306 33.7482 123.854 34.0489 124.32 34.4931C124.783 34.9254 125.107 35.4729 125.289 36.1354C125.41 36.5732 125.455 36.9875 125.423 37.3783C125.387 37.7574 125.315 38.0956 125.206 38.3931C125.094 38.6787 124.983 38.9003 124.874 39.0578C125.709 39.5912 126.259 40.3371 126.523 41.2954L127.546 44.9285C127.562 44.9876 127.541 45.0254 127.482 45.0417L125.476 45.5955C125.429 45.6086 125.4 45.5973 125.391 45.5618L124.376 41.8884C124.258 41.4624 124.003 41.1382 123.611 40.9155C123.227 40.6777 122.816 40.6193 122.378 40.7402L121.207 41.0636L122.63 46.286C122.646 46.3451 122.631 46.3812 122.584 46.3943L120.578 46.9481ZM120.619 38.9341L122.145 38.5126C122.512 38.4113 122.8 38.1854 123.008 37.8349C123.217 37.4844 123.268 37.1139 123.16 36.7235C123.055 36.3449 122.824 36.0588 122.464 35.8651C122.117 35.6681 121.754 35.6219 121.376 35.7264L119.85 36.1479L120.619 38.9341Z" fill="#FBA403"/>
<path d="M129.157 44.579C129.098 44.5953 129.06 44.5739 129.044 44.5147L125.695 32.3181C125.682 32.2708 125.699 32.2406 125.746 32.2275L127.734 31.6786C127.781 31.6656 127.811 31.6827 127.825 31.73L131.209 43.9169C131.225 43.976 131.21 44.0121 131.163 44.0252L129.157 44.579Z" fill="#FBA403"/>
<path d="M132.883 43.55C132.824 43.5664 132.786 43.5449 132.77 43.4858L129.439 31.2843C129.426 31.2369 129.443 31.2067 129.49 31.1937L132.804 30.2595C133.451 30.068 134.085 30.0584 134.706 30.2308C135.338 30.4 135.889 30.7126 136.359 31.1686C136.826 31.6127 137.149 32.1602 137.328 32.8109L138.735 37.9041C138.924 38.5903 138.932 39.263 138.757 39.9224C138.58 40.5699 138.259 41.1361 137.794 41.6209C137.329 42.1058 136.75 42.4505 136.055 42.6551L132.883 43.55ZM134.357 40.7938L135.457 40.49C135.895 40.3691 136.219 40.114 136.43 39.7248C136.653 39.3322 136.705 38.923 136.587 38.4971L135.176 33.3861C135.072 33.0075 134.84 32.7214 134.481 32.5277C134.13 32.3189 133.767 32.2727 133.392 32.3891L132.155 32.7498L134.357 40.7938Z" fill="#FBA403"/>
<path d="M141.236 41.2434C141.189 41.2564 141.157 41.2334 141.141 41.1742L137.792 28.9776C137.779 28.9303 137.796 28.9001 137.843 28.887L143.54 27.3139C143.587 27.3008 143.619 27.3239 143.635 27.383L144.184 29.3706C144.197 29.4179 144.18 29.4481 144.133 29.4612L140.495 30.4658L141.259 33.2343L144.897 32.2296C144.944 32.2166 144.975 32.2337 144.988 32.281L145.559 34.2814C145.572 34.3288 145.555 34.359 145.508 34.372L141.852 35.3816L142.71 38.4872L146.365 37.4776C146.413 37.4646 146.445 37.4876 146.461 37.5468C146.477 37.6059 147.02 39.5699 147.02 39.5699C147.033 39.6172 147.015 39.6474 146.968 39.6604C146.921 39.6735 141.236 41.2434 141.236 41.2434Z" fill="#FBA403"/>
<path d="M127.107 26.7014L127.062 26.5178C127.034 26.4024 127.01 26.2744 126.991 26.1338L126.946 25.8058C126.934 25.7283 126.925 25.6579 126.917 25.5947C126.798 25.8273 126.702 26.0098 126.627 26.142L126.401 26.5272C125.89 27.3624 125.568 27.7983 125.436 27.8348C125.241 27.8886 125.025 27.9031 124.788 27.8783C124.659 27.8639 124.579 27.8339 124.549 27.7884C124.507 27.7328 124.471 27.6514 124.442 27.5442C124.412 27.4352 124.388 27.3342 124.369 27.2411C124.351 27.1481 124.336 27.0554 124.322 26.9631C124.307 26.8691 124.294 26.7795 124.282 26.6943C124.271 26.6069 124.261 26.531 124.251 26.4665C124.23 26.3204 124.214 26.2489 124.203 26.2519L123.544 27.7516C123.227 28.4333 123.044 28.8125 122.996 28.8892C122.893 29.0522 122.759 29.1566 122.593 29.2025C122.51 29.2252 122.437 29.2234 122.372 29.1971C122.307 29.1708 122.266 29.1273 122.249 29.0666C122.216 28.9451 122.232 28.8043 122.297 28.644L123.841 24.9619L124.027 24.55C124.251 24.067 124.415 23.8113 124.519 23.7827C124.664 23.7427 124.811 23.7413 124.962 23.7786C125.096 23.8108 125.179 23.8551 125.212 23.9114C125.225 23.9326 125.24 24.0449 125.256 24.2482L125.302 24.7805C125.352 25.374 125.4 25.753 125.446 25.9173C125.491 26.0799 125.532 26.156 125.569 26.1456C125.691 26.1121 125.87 25.8483 126.106 25.3542L126.687 24.0749C126.818 23.8024 126.91 23.6423 126.964 23.5947C126.98 23.5808 127.004 23.5692 127.038 23.5599C127.072 23.5505 127.111 23.5446 127.155 23.5422C127.2 23.5393 127.246 23.539 127.293 23.5415C127.341 23.5435 127.389 23.5486 127.435 23.5569C127.482 23.5652 127.524 23.5756 127.562 23.5882C127.645 23.6154 127.689 23.6444 127.696 23.6753C127.704 23.7039 127.714 23.7692 127.727 23.8714C127.739 23.9718 127.754 24.0947 127.771 24.2399C127.878 25.2043 127.948 25.7617 127.982 25.9119C128.018 26.0617 128.058 26.1503 128.104 26.178C128.152 26.2051 128.212 26.2089 128.283 26.1891C128.414 26.1531 128.582 26.0231 128.787 25.7992C128.926 25.6474 129.05 25.5565 129.159 25.5264C129.27 25.4958 129.339 25.5332 129.369 25.6386C129.399 25.7476 129.376 25.896 129.301 26.084C129.194 26.3559 128.996 26.6296 128.709 26.905C128.467 27.1353 128.218 27.2857 127.963 27.3562C127.545 27.4716 127.259 27.2534 127.107 26.7014Z" fill="#FBA403"/>
<path d="M130.386 25.2711C130.409 25.3533 130.474 25.3793 130.583 25.3492C130.805 25.2881 131.106 24.908 131.485 24.2091L131.673 23.8747C131.802 23.6526 131.895 23.5337 131.952 23.5179C132.009 23.5021 132.063 23.4979 132.113 23.5052C132.163 23.5125 132.209 23.5266 132.252 23.5476C132.339 23.5909 132.392 23.6483 132.412 23.7197C132.431 23.7894 132.444 23.8693 132.452 23.9595C132.461 24.0474 132.464 24.1485 132.461 24.2628C132.456 24.4755 132.422 24.7684 132.36 25.1412L132.315 25.4074L132.657 24.8689L133.369 23.813C133.444 23.7154 133.512 23.658 133.575 23.6407C133.711 23.6032 133.797 23.6497 133.833 23.7801C133.87 23.914 133.83 24.1106 133.713 24.3697C133.678 24.4506 133.636 24.5282 133.59 24.6027L133.109 25.3266L132.164 26.7092C132.082 26.834 132.02 26.9317 131.98 27.0024C131.944 27.1278 131.914 27.2216 131.89 27.2837C131.87 27.3472 131.849 27.4133 131.83 27.4821C131.811 27.5527 131.79 27.6142 131.768 27.6664C131.721 27.7795 131.66 27.8462 131.587 27.8664C131.51 27.8876 131.428 27.8768 131.339 27.834C131.175 27.7544 131.08 27.6691 131.055 27.578C131.03 27.4869 131.025 27.3737 131.042 27.2384C131.059 27.1049 131.086 26.9494 131.123 26.7718L131.402 25.5673C131.197 25.8892 131.028 26.1119 130.894 26.2352C130.761 26.3567 130.644 26.4447 130.543 26.4994C130.445 26.5552 130.337 26.5997 130.217 26.6328C130.099 26.6653 129.989 26.6689 129.885 26.6436C129.783 26.62 129.691 26.5753 129.609 26.5094C129.45 26.3784 129.334 26.1825 129.262 25.9217C129.186 25.6449 129.18 25.3523 129.245 25.0441C129.306 24.7428 129.424 24.4814 129.599 24.2599C129.784 24.0243 129.999 23.8727 130.244 23.8051C130.488 23.7376 130.637 23.7993 130.69 23.9905C130.723 24.1102 130.67 24.316 130.532 24.608C130.393 24.8983 130.344 25.1193 130.386 25.2711Z" fill="#FBA403"/>
<rect x="133.895" y="33.8794" width="1.38106" height="1.32171" transform="rotate(-15.4376 133.895 33.8794)" fill="#FBA403"/>
<rect x="132.916" y="35.5199" width="1.38106" height="1.32171" transform="rotate(-15.4376 132.916 35.5199)" fill="#FBA403"/>
<rect x="134.595" y="36.4149" width="1.38106" height="1.32171" transform="rotate(-15.4376 134.595 36.4149)" fill="#FBA403"/>
<rect x="133.617" y="38.0555" width="1.38106" height="1.32171" transform="rotate(-15.4376 133.617 38.0555)" fill="#FBA403"/>
<path fill-rule="evenodd" clip-rule="evenodd" d="M112.734 29.8747C110.851 30.3947 109.481 32.018 109.284 33.9617L107.86 48.0456C107.525 51.3572 110.622 53.9713 113.83 53.0853L155.936 41.4576C159.145 40.5715 160.461 36.7387 158.474 34.0682L150.024 22.7112C148.858 21.1439 146.849 20.4538 144.966 20.9738L137.198 23.1191L136.918 22.105L144.686 19.9598C146.987 19.3242 149.443 20.1676 150.868 22.0832L159.318 33.4402C161.747 36.7041 160.138 41.3887 156.216 42.4716L114.11 54.0994C110.189 55.1823 106.404 51.9872 106.813 47.9397L108.237 33.8558C108.478 31.4803 110.152 29.4962 112.454 28.8607L119.24 26.9866L119.52 28.0007L112.734 29.8747Z" fill="#FBA403"/>
<rect x="22.0098" y="42.2195" width="138.17" height="97.1507" rx="10" fill="#343434"/>
<rect x="132.606" y="79.1326" width="30.8636" height="23.3242" rx="3" fill="#FBA403"/>
<rect width="30.8636" height="23.3242" rx="3" transform="matrix(-0.999881 0.0154142 0.0154142 0.999881 48.5291 77.0568)" fill="#FBA403"/>
<line x1="22.0098" y1="59.4761" x2="160.18" y2="59.4761" stroke="#737373" stroke-dasharray="3 3"/>
<line x1="22.0095" y1="123.687" x2="160.179" y2="123.687" stroke="#737373" stroke-dasharray="3 3"/>
<circle cx="148.734" cy="90.6217" r="3.9023" fill="#DD8F00"/>
<circle cx="3.9023" cy="3.9023" r="3.9023" transform="matrix(-0.999881 0.0154142 0.0154142 0.999881 36.1257 85.2407)" fill="#DD8F00"/>
<path d="M60.0337 151.31C60.0337 151.31 70.1392 164.111 91.4052 164.112C112.671 164.113 122.778 151.312 122.778 151.312M60.0337 151.31L62.5125 148.832M60.0337 151.31L56.9456 154.398M122.778 151.312L120.299 148.834M122.778 151.312L125.865 154.4" stroke="#FBA403" stroke-width="3" stroke-linecap="round"/>
</svg>
