<svg width="52" height="29" viewBox="0 0 52 29" fill="none" xmlns="http://www.w3.org/2000/svg">
<path d="M38.3118 11.9554H37.4523L31.6085 6.98161C31.2863 6.7075 30.8777 6.48621 30.413 6.33413C29.9482 6.18205 29.4392 6.10307 28.9235 6.10303H17.4321C16.0262 6.10303 14.7622 6.6857 14.24 7.57453L11.6662 12.038C10.1857 12.2992 9.08765 13.2067 9.08765 14.2963V18.393C9.08765 18.7163 9.47229 18.9782 9.94718 18.9782H12.5258C12.5258 20.9175 14.8347 22.4896 17.683 22.4896C20.5313 22.4896 22.8402 20.9175 22.8402 18.9782H29.7165C29.7165 20.9175 32.0254 22.4896 34.8737 22.4896C37.722 22.4896 40.0309 20.9175 40.0309 18.9782H42.6095C43.0844 18.9782 43.469 18.7163 43.469 18.393V15.4668C43.469 13.5275 41.1601 11.9554 38.3118 11.9554ZM17.683 20.7339C16.261 20.7339 15.1044 19.9464 15.1044 18.9782C15.1044 18.01 16.261 17.2225 17.683 17.2225C19.105 17.2225 20.2616 18.01 20.2616 18.9782C20.2616 19.9464 19.105 20.7339 17.683 20.7339ZM21.5509 11.9554H15.3692L17.4321 8.44397H21.5509V11.9554ZM24.1295 11.9554V8.44397H28.9235L33.0493 11.9554H24.1295ZM34.8737 20.7339C33.4517 20.7339 32.2951 19.9464 32.2951 18.9782C32.2951 18.01 33.4517 17.2225 34.8737 17.2225C36.2957 17.2225 37.4523 18.01 37.4523 18.9782C37.4523 19.9464 36.2957 20.7339 34.8737 20.7339Z" fill="#FBA403"/>
</svg>
