<svg width="42" height="29" viewBox="0 0 42 29" fill="none" xmlns="http://www.w3.org/2000/svg">
<path d="M27.6785 7.29639L25.9962 8.17139L30.202 11.9631H23.4727V10.2131H20.9492V11.9631H5.80826C3.94087 11.9631 2.4436 13.0014 2.4436 14.2964V17.7964H5.80826C5.80826 18.7246 6.33999 19.6149 7.28648 20.2713C8.23298 20.9276 9.5167 21.2964 10.8552 21.2964C12.1938 21.2964 13.4775 20.9276 14.424 20.2713C15.3705 19.6149 15.9022 18.7246 15.9022 17.7964H25.9962C25.9962 18.7246 26.5279 19.6149 27.4744 20.2713C28.4209 20.9276 29.7046 21.2964 31.0432 21.2964C32.3817 21.2964 33.6654 20.9276 34.6119 20.2713C35.5584 19.6149 36.0901 18.7246 36.0901 17.7964H39.4548V14.2964C39.4548 13.0014 37.9575 11.9631 36.0901 11.9631H32.7255L27.6785 7.29639ZM10.8552 16.0464C11.5245 16.0464 12.1664 16.2308 12.6396 16.5589C13.1129 16.8871 13.3787 17.3323 13.3787 17.7964C13.3787 18.2605 13.1129 18.7056 12.6396 19.0338C12.1664 19.362 11.5245 19.5464 10.8552 19.5464C10.186 19.5464 9.54411 19.362 9.07086 19.0338C8.59762 18.7056 8.33175 18.2605 8.33175 17.7964C8.33175 17.3323 8.59762 16.8871 9.07086 16.5589C9.54411 16.2308 10.186 16.0464 10.8552 16.0464ZM31.0432 16.0464C31.7124 16.0464 32.3543 16.2308 32.8275 16.5589C33.3008 16.8871 33.5667 17.3323 33.5667 17.7964C33.5667 18.2605 33.3008 18.7056 32.8275 19.0338C32.3543 19.362 31.7124 19.5464 31.0432 19.5464C30.3739 19.5464 29.732 19.362 29.2588 19.0338C28.7855 18.7056 28.5197 18.2605 28.5197 17.7964C28.5197 17.3323 28.7855 16.8871 29.2588 16.5589C29.732 16.2308 30.3739 16.0464 31.0432 16.0464Z" fill="#FBA403"/>
</svg>
