<svg width="44" height="29" viewBox="0 0 44 29" fill="none" xmlns="http://www.w3.org/2000/svg">
<path d="M5.91184 8.46289C3.94795 8.46289 2.37329 9.50122 2.37329 10.7962V20.1296H5.91184C5.91184 21.0578 6.47106 21.9481 7.46647 22.6044C8.46188 23.2608 9.81194 23.6296 11.2197 23.6296C12.6274 23.6296 13.9775 23.2608 14.9729 22.6044C15.9683 21.9481 16.5275 21.0578 16.5275 20.1296H27.1431C27.1431 21.0578 27.7024 21.9481 28.6978 22.6044C29.6932 23.2608 31.0432 23.6296 32.451 23.6296C33.8587 23.6296 35.2087 23.2608 36.2042 22.6044C37.1996 21.9481 37.7588 21.0578 37.7588 20.1296H41.2973V15.4629C41.2973 14.1679 39.7227 13.1296 37.7588 13.1296L32.451 8.46289H5.91184ZM5.91184 10.2129H12.9889V13.1296H5.91184V10.2129ZM16.5275 10.2129H23.6046V13.1296H16.5275V10.2129ZM27.1431 10.2129H31.5663L35.0341 13.1296H27.1431V10.2129ZM11.2197 18.3796C11.9235 18.3796 12.5986 18.5639 13.0963 18.8921C13.594 19.2203 13.8736 19.6654 13.8736 20.1296C13.8736 20.5937 13.594 21.0388 13.0963 21.367C12.5986 21.6952 11.9235 21.8796 11.2197 21.8796C10.5158 21.8796 9.84077 21.6952 9.34306 21.367C8.84536 21.0388 8.56575 20.5937 8.56575 20.1296C8.56575 19.6654 8.84536 19.2203 9.34306 18.8921C9.84077 18.5639 10.5158 18.3796 11.2197 18.3796ZM32.451 18.3796C33.1548 18.3796 33.8299 18.5639 34.3276 18.8921C34.8253 19.2203 35.1049 19.6654 35.1049 20.1296C35.1049 20.5937 34.8253 21.0388 34.3276 21.367C33.8299 21.6952 33.1548 21.8796 32.451 21.8796C31.7471 21.8796 31.0721 21.6952 30.5744 21.367C30.0767 21.0388 29.797 20.5937 29.797 20.1296C29.797 19.6654 30.0767 19.2203 30.5744 18.8921C31.0721 18.5639 31.7471 18.3796 32.451 18.3796Z" fill="#FBA403"/>
</svg>
