<svg width="40" height="29" viewBox="0 0 40 29" fill="none" xmlns="http://www.w3.org/2000/svg">
<path d="M20.3921 10.2129H12.2544L7.37184 13.1296H5.74431C3.93776 13.1296 2.48926 14.1679 2.48926 15.4629V18.9629H6.02099C6.72083 20.3629 8.55994 21.2962 10.6269 21.2962C12.6939 21.2962 14.533 20.3629 15.2165 18.9629H25.5513C26.2512 20.3629 28.0903 21.2962 30.1572 21.2962C32.2242 21.2962 34.0633 20.3629 34.7469 18.9629H38.2949V17.7962C38.2949 16.5012 36.6185 16.0812 35.0398 15.4629L20.3921 10.2129ZM9.40625 14.2962L13.0682 11.9629H19.5783L26.0884 14.2962H9.40625ZM10.6269 16.0462C11.2744 16.0462 11.8953 16.2306 12.3532 16.5588C12.811 16.887 13.0682 17.3321 13.0682 17.7962C13.0682 18.2604 12.811 18.7055 12.3532 19.0337C11.8953 19.3618 11.2744 19.5462 10.6269 19.5462C9.97943 19.5462 9.35847 19.3618 8.90064 19.0337C8.44281 18.7055 8.18561 18.2604 8.18561 17.7962C8.18561 17.3321 8.44281 16.887 8.90064 16.5588C9.35847 16.2306 9.97943 16.0462 10.6269 16.0462ZM30.1572 16.0462C30.8047 16.0462 31.4257 16.2306 31.8835 16.5588C32.3413 16.887 32.5985 17.3321 32.5985 17.7962C32.5985 18.2604 32.3413 18.7055 31.8835 19.0337C31.4257 19.3618 30.8047 19.5462 30.1572 19.5462C29.5098 19.5462 28.8888 19.3618 28.431 19.0337C27.9732 18.7055 27.7159 18.2604 27.7159 17.7962C27.7159 17.3321 27.9732 16.887 28.431 16.5588C28.8888 16.2306 29.5098 16.0462 30.1572 16.0462Z" fill="#FBA403"/>
</svg>
